<?xml version="1.0" encoding="UTF-8" standalone="no"?>
<!DOCTYPE svg PUBLIC "-//W3C//DTD SVG 1.1//EN" "http://www.w3.org/Graphics/SVG/1.1/DTD/svg11.dtd">
<svg width="100%" height="100%" viewBox="0 0 32 32" version="1.1" xmlns="http://www.w3.org/2000/svg" xmlns:xlink="http://www.w3.org/1999/xlink" xml:space="preserve" xmlns:serif="http://www.serif.com/" style="fill-rule:evenodd;clip-rule:evenodd;stroke-linejoin:round;stroke-miterlimit:1.41421;">
    <g transform="matrix(1,0,0,1,-1552,0)">
        <g id="back_arrow" transform="matrix(1.03226,0,0,1.03226,-50.0645,0)">
            <rect x="1552" y="0" width="31" height="31" style="fill:none;"/>
            <clipPath id="_clip1">
                <rect x="1552" y="0" width="31" height="31"/>
            </clipPath>
            <g clip-path="url(#_clip1)">
                <g transform="matrix(1.72222,0,0,1.55,-1129.5,-7.75)">
                    <g id="back_arrow1" serif:id="back_arrow">
                        <rect id="back_arrow2" serif:id="back_arrow" x="1557" y="5" width="18" height="20" style="fill:none;"/>
                        <clipPath id="_clip2">
                            <rect id="back_arrow3" serif:id="back_arrow" x="1557" y="5" width="18" height="20"/>
                        </clipPath>
                        <g clip-path="url(#_clip2)">
                            <g transform="matrix(0.5625,0,0,0.625,1567.17,10.7274)">
                                <path d="M0,13.586C-0.205,13.586 -0.41,13.502 -0.558,13.337L-5.891,7.406C-6.146,7.123 -6.148,6.695 -5.897,6.409L-0.563,0.341C-0.29,0.03 0.183,0 0.495,0.273C0.806,0.546 0.837,1.02 0.563,1.331L-4.33,6.899L0.558,12.335C0.834,12.643 0.81,13.116 0.501,13.394C0.358,13.523 0.179,13.586 0,13.586" style="fill:rgb(22,172,246);fill-rule:nonzero;"/>
                            </g>
                        </g>
                    </g>
                </g>
            </g>
        </g>
    </g>
</svg>
