<svg width="36" height="36" viewBox="0 0 36 36" fill="none" xmlns="http://www.w3.org/2000/svg">
<g id="Type=call topbar">
<rect id="Rectangle" width="36" height="36" fill="#FF0000" fill-opacity="0.01"/>
<g id="call">
<rect id="Rectangle_2" x="4" y="4" width="28" height="28" fill="#FF0000" fill-opacity="0.01"/>
<path id="Fill 5" fill-rule="evenodd" clip-rule="evenodd" d="M13.4323 16.3884C14.3614 18.2907 16.8966 21.2822 19.7564 22.6599C20.6664 23.0985 21.439 22.2978 22.3159 21.596C22.8123 21.1989 23.4792 21.0407 24.211 21.5629C25.3679 22.3895 26.4064 23.1194 27.1675 23.705C27.8777 24.2519 28.5917 24.7441 28.1144 25.8064C27.4781 27.228 26.7857 28.1419 25.5639 28.1776C22.3401 28.272 18.4532 26.7794 13.7899 22.1285C9.18276 17.534 6.70857 10.5288 8.48199 9.27712C9.40765 8.62378 9.9833 8.17884 10.4468 7.96063C11.3697 7.52626 11.9763 8.15807 12.4981 8.87064C12.8608 9.36412 13.8714 10.8531 14.4504 11.7507C15.0066 12.6112 14.7521 13.328 14.2926 13.8614C13.2286 15.0959 13.0644 15.6359 13.4323 16.3884Z" fill="#6D6F81"/>
</g>
</g>
</svg>
