<svg width="36" height="36" viewBox="0 0 36 36" fill="none" xmlns="http://www.w3.org/2000/svg">
<g id="Type=add">
<rect id="Rectangle" width="36" height="36" fill="#FF0000" fill-opacity="0.01"/>
<path id="Fill 1" fill-rule="evenodd" clip-rule="evenodd" d="M17 17V9C17 8.44809 17.4481 8 18 8C18.5519 8 19 8.44809 19 9V17H27C27.5519 17 28 17.4481 28 18C28 18.5519 27.5519 19 27 19H19V27C19 27.5519 18.5519 28 18 28C17.4481 28 17 27.5519 17 27V19H9C8.44809 19 8 18.5519 8 18C8 17.4481 8.44809 17 9 17H17Z" fill="#6D6F81"/>
</g>
</svg>
