<svg width="36" height="36" viewBox="0 0 36 36" fill="none" xmlns="http://www.w3.org/2000/svg">
<rect width="36" height="36" fill="#FF0000" fill-opacity="0.01"/>
<path fill-rule="evenodd" clip-rule="evenodd" d="M31.9681 20.1101C32.2774 19.963 32.5382 19.7332 32.7207 19.4472C32.9032 19.1612 33 18.8305 33 18.4929C33 18.1553 32.9032 17.8246 32.7207 17.5386C32.5382 17.2526 32.2774 17.0229 31.9681 16.8757L6.69949 4.78874C6.38609 4.64291 6.03789 4.58458 5.693 4.62012C5.34811 4.65567 5.01982 4.78373 4.74406 4.99029C4.46831 5.19684 4.25571 5.47393 4.12954 5.79123C4.00337 6.10852 3.9685 6.4538 4.02873 6.78926C4.43118 9.0054 4.8946 11.9523 5.1507 14.7674C5.1735 15.0311 5.27809 15.2816 5.45037 15.4851C5.62264 15.6886 5.85431 15.8353 6.11412 15.9054L13.4313 17.882C13.4313 17.882 13.7481 17.9451 13.8624 18.0574C13.9768 18.1697 14.041 18.3221 14.041 18.4809C14.041 18.6398 13.9768 18.7921 13.8624 18.9045C13.7481 19.0168 13.4313 19.0799 13.4313 19.0799L6.12632 21.0085C5.87058 21.08 5.64285 21.2258 5.47307 21.4268C5.30329 21.6277 5.19941 21.8745 5.17509 22.1346C4.91899 24.9736 4.43118 27.9564 4.02873 30.2325C3.96926 30.5671 4.00502 30.9114 4.13206 31.2274C4.2591 31.5433 4.47249 31.8187 4.7487 32.0231C5.02492 32.2275 5.35323 32.3531 5.69745 32.3859C6.04167 32.4187 6.38842 32.3575 6.69949 32.209L31.9681 20.1101Z" fill="#00A2FF"/>
</svg>
