<svg width="24" height="24" viewBox="0 0 24 24" fill="none" xmlns="http://www.w3.org/2000/svg">
<path d="M17.044 6.01999H9.55603C9.03909 6.01999 8.62003 6.43905 8.62003 6.95599V14.444C8.62003 14.9609 9.03909 15.38 9.55603 15.38H17.044C17.561 15.38 17.98 14.9609 17.98 14.444V6.95599C17.98 6.43905 17.561 6.01999 17.044 6.01999Z" fill="white"/>
<path d="M17.044 15.9H9.55601C9.16985 15.9 8.79951 15.7466 8.52646 15.4735C8.25341 15.2005 8.10001 14.8302 8.10001 14.444V6.956C8.10001 6.56984 8.25341 6.19951 8.52646 5.92645C8.79951 5.6534 9.16985 5.5 9.55601 5.5H17.044C17.4302 5.5 17.8005 5.6534 18.0736 5.92645C18.3466 6.19951 18.5 6.56984 18.5 6.956V14.444C18.5 14.8302 18.3466 15.2005 18.0736 15.4735C17.8005 15.7466 17.4302 15.9 17.044 15.9V15.9ZM9.55601 6.54C9.44568 6.54 9.33986 6.58383 9.26185 6.66184C9.18383 6.73986 9.14001 6.84567 9.14001 6.956V14.444C9.14001 14.5543 9.18383 14.6601 9.26185 14.7382C9.33986 14.8162 9.44568 14.86 9.55601 14.86H17.044C17.1543 14.86 17.2601 14.8162 17.3382 14.7382C17.4162 14.6601 17.46 14.5543 17.46 14.444V6.956C17.46 6.90137 17.4492 6.84728 17.4283 6.7968C17.4074 6.74633 17.3768 6.70047 17.3382 6.66184C17.2995 6.62321 17.2537 6.59257 17.2032 6.57167C17.1527 6.55076 17.0986 6.54 17.044 6.54H9.55601Z" fill="#1880F6"/>
<path d="M14.444 8.62H6.95602C6.43908 8.62 6.02002 9.03906 6.02002 9.55599V17.044C6.02002 17.5609 6.43908 17.98 6.95602 17.98H14.444C14.961 17.98 15.38 17.5609 15.38 17.044V9.55599C15.38 9.03906 14.961 8.62 14.444 8.62Z" fill="white"/>
<path d="M14.444 18.5H6.956C6.56984 18.5 6.19951 18.3466 5.92645 18.0736C5.6534 17.8005 5.5 17.4302 5.5 17.044V9.55601C5.5 9.16985 5.6534 8.79951 5.92645 8.52646C6.19951 8.25341 6.56984 8.10001 6.956 8.10001H14.444C14.8302 8.10001 15.2005 8.25341 15.4735 8.52646C15.7466 8.79951 15.9 9.16985 15.9 9.55601V17.044C15.9 17.4302 15.7466 17.8005 15.4735 18.0736C15.2005 18.3466 14.8302 18.5 14.444 18.5V18.5ZM6.956 9.14001C6.84567 9.14001 6.73986 9.18383 6.66184 9.26185C6.58383 9.33986 6.54 9.44568 6.54 9.55601V17.044C6.54 17.1543 6.58383 17.2601 6.66184 17.3382C6.70047 17.3768 6.74633 17.4074 6.7968 17.4283C6.84728 17.4492 6.90137 17.46 6.956 17.46H14.444C14.5543 17.46 14.6601 17.4162 14.7382 17.3382C14.8162 17.2601 14.86 17.1543 14.86 17.044V9.55601C14.86 9.44568 14.8162 9.33986 14.7382 9.26185C14.6601 9.18383 14.5543 9.14001 14.444 9.14001H6.956Z" fill="#1880F6"/>
</svg>
