<svg width="36" height="36" viewBox="0 0 36 36" fill="none" xmlns="http://www.w3.org/2000/svg">
<g id="Type=new chat">
<rect id="Rectangle" width="36" height="36" fill="#FF0000" fill-opacity="0.01"/>
<g id="Group 4">
<path id="Stroke 1" d="M18.2543 10.625H10.9151C9.30622 10.625 8 11.9273 8 13.5312V26.0938C8 27.6978 9.30622 29 10.9151 29H23.4599C25.0688 29 26.375 27.6978 26.375 26.0938V18.5896" stroke="#6D6F81" stroke-width="1.96875" stroke-linecap="round"/>
<g id="Group">
<path id="Fill 2" fill-rule="evenodd" clip-rule="evenodd" d="M26.1061 8.44947C26.1099 8.44567 26.1137 8.44186 26.1176 8.43792C26.704 7.85163 27.6587 7.85438 28.2485 8.44409C28.8382 9.0338 28.8409 9.98851 28.2544 10.5749C28.2182 10.6113 28.1805 10.6453 28.1416 10.677L27.3411 11.4775C27.1522 11.6664 26.8457 11.6664 26.6569 11.4775L25.2041 10.0247C25.0153 9.836 25.0153 9.5294 25.2041 9.34066L26.1061 8.44947Z" fill="#6D6F81"/>
<path id="Fill 3" fill-rule="evenodd" clip-rule="evenodd" d="M14.0136 20.9427L22.8833 12.0728C23.0638 11.8924 23.3571 11.8924 23.5376 12.0728L24.927 13.4624C25.1077 13.643 25.1077 13.9361 24.927 14.1166L16.0573 22.9865C16.0573 22.9865 14.7427 23.4247 13.8353 23.7271C13.6755 23.7805 13.4994 23.7388 13.3802 23.6198C13.2612 23.5007 13.2196 23.3246 13.2728 23.1649L14.0136 20.9427Z" fill="#6D6F81"/>
</g>
</g>
</g>
</svg>
