<?xml version="1.0" encoding="UTF-8" standalone="no"?>
<!DOCTYPE svg PUBLIC "-//W3C//DTD SVG 1.1//EN" "http://www.w3.org/Graphics/SVG/1.1/DTD/svg11.dtd">
<svg width="100%" height="100%" viewBox="0 0 7 10" version="1.1" xmlns="http://www.w3.org/2000/svg" xmlns:xlink="http://www.w3.org/1999/xlink" xml:space="preserve" xmlns:serif="http://www.serif.com/" style="fill-rule:evenodd;clip-rule:evenodd;stroke-linejoin:round;stroke-miterlimit:2;">
    <g transform="matrix(1,0,0,1,-121,-10200)">
        <path d="M124.498,10210C124.365,10210 124.238,10209.9 124.144,10209.9L121.147,10206.9C120.952,10206.7 120.952,10206.3 121.147,10206.1C121.342,10206 121.659,10206 121.854,10206.1L124.498,10208.8L127.142,10206.1C127.337,10206 127.654,10206 127.849,10206.1C128.044,10206.3 128.044,10206.7 127.849,10206.9L124.852,10209.9C124.758,10209.9 124.631,10210 124.498,10210ZM127.495,10204C127.367,10204 127.239,10203.9 127.141,10203.9L124.497,10201.2L121.853,10203.9C121.658,10204 121.342,10204 121.146,10203.9C120.951,10203.7 120.951,10203.3 121.146,10203.1L124.144,10200.1C124.339,10200 124.656,10200 124.851,10200.1L127.849,10203.1C128.044,10203.3 128.044,10203.7 127.849,10203.9C127.751,10203.9 127.623,10204 127.495,10204Z" style="fill:rgb(23,171,246);fill-rule:nonzero;"/>
    </g>
</svg>
