<?xml version="1.0" encoding="UTF-8" standalone="no"?>
<!DOCTYPE svg PUBLIC "-//W3C//DTD SVG 1.1//EN" "http://www.w3.org/Graphics/SVG/1.1/DTD/svg11.dtd">
<svg width="100%" height="100%" viewBox="0 0 28 34" version="1.1" xmlns="http://www.w3.org/2000/svg" xmlns:xlink="http://www.w3.org/1999/xlink" xml:space="preserve" xmlns:serif="http://www.serif.com/" style="fill-rule:evenodd;clip-rule:evenodd;stroke-linejoin:round;stroke-miterlimit:1.41421;">
    <g transform="matrix(1,0,0,1,-76,0)">
        <g id="Artboard1" transform="matrix(0.933333,0,0,1.13333,76,0)">
            <rect x="0" y="0" width="30" height="30" style="fill:none;"/>
            <clipPath id="_clip1">
                <rect x="0" y="0" width="30" height="30"/>
            </clipPath>
            <g clip-path="url(#_clip1)">
                <g transform="matrix(1.07143,0,0,0.882353,-0.00741742,0.0204082)">
                    <g id="Layer-1" serif:id="Layer 1">
                        <g>
                            <g opacity="0.393906">
                                <g transform="matrix(0.707107,0.707107,0.707107,-0.707107,24.5,-1.44945)">
                                    <clipPath id="_clip2">
                                        <path d="M3.5,-8.449L8.45,-3.5L3.5,1.45L-1.45,-3.5L3.5,-8.449Z" clip-rule="nonzero"/>
                                    </clipPath>
                                    <g clip-path="url(#_clip2)">
                                        <path d="M-1.45,-3.5L8.45,-3.5L4.818,-7.132C4.091,-7.859 2.91,-7.859 2.182,-7.132L-1.45,-3.5Z" style="fill:white;"/>
                                    </g>
                                </g>
                            </g>
                        </g>
                    </g>
                </g>
                <g id="Layer-11" serif:id="Layer 1" transform="matrix(1.07143,0,0,0.882353,-6.91795,-1.11132)">
                    <g transform="matrix(1,0,0,1.00274,34.4567,28.2403)">
                        <path d="M0,-19.907L-7,-26.907L-23.8,-26.907C-26.118,-26.907 -28,-25.025 -28,-22.707L-28,2.8C-28,5.118 -26.118,7 -23.8,7L-4.2,7C-1.882,7 0,5.118 0,2.8L0,-19.907Z" style="fill:rgb(42,154,211);"/>
                    </g>
                    <g transform="matrix(1,0,0,1,10.4624,15.8136)">
                        <path d="M0,0C0,-0.39 0.316,-0.706 0.707,-0.706L18.718,-0.706C19.108,-0.706 19.424,-0.39 19.424,0C19.424,0.39 19.108,0.706 18.718,0.706L0.707,0.706C0.316,0.706 0,0.39 0,0" style="fill:white;"/>
                    </g>
                    <g transform="matrix(1,0,0,1,29.1807,16.5195)">
                        <path d="M0,-1.412L0.036,-1.412L0.072,-1.409L0.107,-1.404L0.143,-1.398L0.177,-1.39L0.243,-1.37L0.275,-1.357L0.307,-1.343L0.337,-1.327L0.366,-1.31L0.395,-1.291L0.423,-1.272L0.449,-1.251L0.475,-1.228L0.499,-1.205L0.522,-1.181L0.545,-1.155L0.566,-1.128L0.586,-1.101L0.604,-1.072L0.621,-1.042L0.637,-1.012L0.65,-0.981L0.663,-0.949L0.675,-0.916L0.685,-0.882L0.692,-0.848L0.698,-0.813L0.703,-0.778L0.705,-0.743L0.706,-0.706L0.705,-0.67L0.703,-0.634L0.698,-0.599L0.692,-0.564L0.685,-0.53L0.675,-0.496L0.663,-0.463L0.65,-0.431L0.637,-0.4L0.621,-0.37L0.604,-0.34L0.586,-0.311L0.566,-0.284L0.545,-0.257L0.522,-0.231L0.499,-0.207L0.475,-0.183L0.449,-0.161L0.423,-0.14L0.395,-0.12L0.366,-0.102L0.337,-0.085L0.307,-0.07L0.275,-0.056L0.243,-0.043L0.21,-0.032L0.177,-0.022L0.143,-0.014L0.107,-0.008L0.072,-0.003L0.036,-0.001L0,0L-18.012,0L-18.048,-0.001L-18.084,-0.003L-18.119,-0.008L-18.154,-0.014L-18.188,-0.022L-18.222,-0.032L-18.254,-0.043L-18.287,-0.056L-18.318,-0.07L-18.348,-0.085L-18.378,-0.102L-18.407,-0.12L-18.435,-0.14L-18.461,-0.161L-18.487,-0.183L-18.511,-0.207L-18.535,-0.231L-18.557,-0.257L-18.578,-0.284L-18.598,-0.311L-18.616,-0.34L-18.633,-0.37L-18.648,-0.4L-18.663,-0.431L-18.675,-0.463L-18.687,-0.496L-18.696,-0.53L-18.704,-0.564L-18.71,-0.599L-18.714,-0.634L-18.717,-0.67L-18.718,-0.706L-18.717,-0.743L-18.714,-0.778L-18.71,-0.813L-18.704,-0.848L-18.696,-0.882L-18.687,-0.916L-18.675,-0.949L-18.663,-0.981L-18.648,-1.012L-18.633,-1.042L-18.616,-1.072L-18.598,-1.101L-18.578,-1.128L-18.557,-1.155L-18.535,-1.181L-18.511,-1.205L-18.487,-1.228L-18.461,-1.251L-18.435,-1.272L-18.407,-1.291L-18.378,-1.31L-18.348,-1.327L-18.318,-1.343L-18.287,-1.357L-18.254,-1.37L-18.222,-1.38L-18.188,-1.39L-18.154,-1.398L-18.119,-1.404L-18.084,-1.409L-18.048,-1.412L0,-1.412ZM-18.004,-0.812L-18.018,-0.812L-18.023,-0.811L-18.029,-0.811L-18.034,-0.81L-18.039,-0.809L-18.043,-0.808L-18.048,-0.806L-18.053,-0.804L-18.057,-0.802L-18.062,-0.8L-18.066,-0.797L-18.071,-0.794L-18.075,-0.791L-18.079,-0.788L-18.083,-0.785L-18.087,-0.781L-18.09,-0.777L-18.094,-0.773L-18.097,-0.769L-18.1,-0.765L-18.103,-0.76L-18.105,-0.756L-18.108,-0.751L-18.11,-0.747L-18.112,-0.742L-18.113,-0.738L-18.115,-0.733L-18.116,-0.728L-18.117,-0.723L-18.117,-0.718L-18.118,-0.712L-18.118,-0.7L-18.117,-0.695L-18.117,-0.689L-18.115,-0.679L-18.113,-0.674L-18.112,-0.67L-18.11,-0.665L-18.108,-0.661L-18.105,-0.656L-18.103,-0.652L-18.1,-0.647L-18.094,-0.639L-18.09,-0.635L-18.087,-0.631L-18.083,-0.627L-18.071,-0.618L-18.066,-0.615L-18.062,-0.613L-18.053,-0.608L-18.048,-0.606L-18.043,-0.605L-18.039,-0.603L-18.029,-0.601L-18.023,-0.6L0.006,-0.6L0.017,-0.601L0.027,-0.603L0.036,-0.606L0.046,-0.61L0.055,-0.615L0.063,-0.621L0.071,-0.627L0.079,-0.635L0.085,-0.643L0.091,-0.652L0.096,-0.661L0.1,-0.67L0.103,-0.679L0.104,-0.689L0.106,-0.7L0.106,-0.706L0.106,-0.712L0.105,-0.718L0.104,-0.723L0.104,-0.728L0.103,-0.733L0.102,-0.738L0.1,-0.742L0.098,-0.747L0.096,-0.751L0.094,-0.756L0.091,-0.76L0.089,-0.765L0.085,-0.769L0.082,-0.773L0.079,-0.777L0.075,-0.781L0.071,-0.785L0.067,-0.788L0.063,-0.791L0.059,-0.794L0.055,-0.797L0.05,-0.8L0.046,-0.802L0.041,-0.804L0.036,-0.806L0.031,-0.808L0.027,-0.809L0.022,-0.81L0.017,-0.811L0.012,-0.811L0.006,-0.812L-0.008,-0.812L-18.004,-0.812Z" style="fill:white;"/>
                    </g>
                    <g transform="matrix(1,0,0,1,10.4624,19.5348)">
                        <path d="M0,0.001C0,-0.39 0.316,-0.706 0.707,-0.706L16.741,-0.706C17.13,-0.706 17.447,-0.39 17.447,0.001C17.447,0.391 17.13,0.707 16.741,0.707L0.707,0.707C0.316,0.707 0,0.391 0,0.001" style="fill:white;"/>
                    </g>
                    <g transform="matrix(1,0,0,1,27.2031,20.2422)">
                        <path d="M0,-1.413L0.036,-1.412L0.072,-1.41L0.107,-1.405L0.143,-1.399L0.177,-1.391L0.243,-1.371L0.275,-1.358L0.307,-1.344L0.337,-1.328L0.366,-1.311L0.395,-1.292L0.423,-1.273L0.449,-1.252L0.475,-1.229L0.499,-1.206L0.522,-1.182L0.545,-1.156L0.566,-1.129L0.586,-1.102L0.604,-1.073L0.621,-1.043L0.637,-1.013L0.65,-0.982L0.664,-0.95L0.675,-0.917L0.685,-0.883L0.692,-0.849L0.698,-0.815L0.703,-0.779L0.705,-0.744L0.706,-0.706L0.705,-0.67L0.703,-0.635L0.698,-0.599L0.692,-0.565L0.685,-0.531L0.675,-0.497L0.664,-0.464L0.65,-0.432L0.637,-0.401L0.621,-0.371L0.604,-0.341L0.586,-0.312L0.566,-0.285L0.545,-0.258L0.522,-0.232L0.499,-0.207L0.475,-0.184L0.449,-0.163L0.423,-0.141L0.395,-0.121L0.366,-0.103L0.337,-0.086L0.307,-0.071L0.275,-0.056L0.243,-0.043L0.21,-0.033L0.177,-0.023L0.143,-0.015L0.107,-0.009L0.072,-0.004L0.036,-0.001L0,0L-16.034,0L-16.071,-0.001L-16.106,-0.004L-16.142,-0.009L-16.177,-0.015L-16.211,-0.023L-16.244,-0.033L-16.277,-0.043L-16.309,-0.056L-16.34,-0.071L-16.371,-0.086L-16.4,-0.103L-16.429,-0.121L-16.457,-0.141L-16.483,-0.163L-16.509,-0.184L-16.534,-0.207L-16.557,-0.232L-16.579,-0.258L-16.6,-0.285L-16.62,-0.312L-16.638,-0.341L-16.655,-0.371L-16.671,-0.401L-16.685,-0.432L-16.698,-0.464L-16.709,-0.497L-16.718,-0.531L-16.726,-0.565L-16.732,-0.599L-16.737,-0.635L-16.74,-0.67L-16.741,-0.706L-16.74,-0.744L-16.737,-0.779L-16.732,-0.815L-16.726,-0.849L-16.718,-0.883L-16.709,-0.917L-16.698,-0.95L-16.685,-0.982L-16.671,-1.013L-16.655,-1.043L-16.638,-1.073L-16.62,-1.102L-16.6,-1.129L-16.579,-1.156L-16.557,-1.182L-16.534,-1.206L-16.509,-1.229L-16.483,-1.252L-16.457,-1.273L-16.429,-1.292L-16.4,-1.311L-16.371,-1.328L-16.34,-1.344L-16.309,-1.358L-16.277,-1.371L-16.244,-1.381L-16.211,-1.391L-16.177,-1.399L-16.142,-1.405L-16.106,-1.41L-16.071,-1.412L-16.034,-1.413L0,-1.413ZM-16.027,-0.813L-16.04,-0.813L-16.046,-0.813L-16.051,-0.812L-16.056,-0.811L-16.061,-0.81L-16.066,-0.808L-16.071,-0.807L-16.075,-0.805L-16.08,-0.803L-16.084,-0.8L-16.089,-0.798L-16.093,-0.795L-16.097,-0.792L-16.102,-0.788L-16.105,-0.786L-16.109,-0.782L-16.113,-0.778L-16.116,-0.774L-16.12,-0.77L-16.123,-0.766L-16.125,-0.761L-16.128,-0.757L-16.13,-0.752L-16.132,-0.747L-16.134,-0.744L-16.136,-0.739L-16.137,-0.734L-16.138,-0.729L-16.139,-0.724L-16.14,-0.718L-16.14,-0.696L-16.136,-0.675L-16.132,-0.666L-16.13,-0.662L-16.128,-0.657L-16.125,-0.653L-16.123,-0.648L-16.12,-0.644L-16.116,-0.64L-16.113,-0.636L-16.102,-0.625L-16.097,-0.621L-16.093,-0.619L-16.089,-0.616L-16.084,-0.614L-16.08,-0.611L-16.075,-0.609L-16.071,-0.607L-16.066,-0.606L-16.061,-0.604L-16.051,-0.602L-16.046,-0.602L-16.04,-0.601L0.006,-0.601L0.017,-0.602L0.027,-0.604L0.036,-0.607L0.046,-0.611L0.055,-0.616L0.063,-0.621L0.071,-0.628L0.079,-0.636L0.086,-0.644L0.091,-0.653L0.096,-0.662L0.1,-0.671L0.103,-0.68L0.104,-0.69L0.106,-0.701L0.106,-0.706L0.106,-0.713L0.105,-0.718L0.104,-0.724L0.104,-0.729L0.103,-0.734L0.102,-0.739L0.1,-0.744L0.099,-0.747L0.096,-0.752L0.094,-0.757L0.091,-0.761L0.089,-0.766L0.086,-0.77L0.082,-0.774L0.079,-0.778L0.075,-0.782L0.071,-0.786L0.067,-0.788L0.063,-0.792L0.059,-0.795L0.055,-0.798L0.05,-0.8L0.046,-0.803L0.041,-0.805L0.036,-0.807L0.032,-0.808L0.027,-0.81L0.022,-0.811L0.017,-0.812L0.012,-0.813L0.006,-0.813L-0.008,-0.813L-16.027,-0.813Z" style="fill:white;"/>
                    </g>
                    <g transform="matrix(1,0,0,1,10.4624,23.2564)">
                        <path d="M0,0.001C0,-0.39 0.316,-0.706 0.707,-0.706L11.169,-0.706C11.559,-0.706 11.875,-0.39 11.875,0.001C11.875,0.391 11.559,0.707 11.169,0.707L0.707,0.707C0.316,0.707 0,0.391 0,0.001" style="fill:white;"/>
                    </g>
                    <g transform="matrix(1,0,0,1,21.668,23.9624)">
                        <path d="M0,-1.411L0.036,-1.408L0.071,-1.403L0.106,-1.397L0.14,-1.39L0.174,-1.38L0.207,-1.369L0.239,-1.356L0.27,-1.342L0.3,-1.326L0.33,-1.309L0.358,-1.291L0.386,-1.271L0.413,-1.25L0.438,-1.228L0.463,-1.205L0.486,-1.181L0.509,-1.154L0.53,-1.128L0.549,-1.1L0.568,-1.071L0.585,-1.042L0.6,-1.012L0.614,-0.98L0.627,-0.948L0.638,-0.915L0.648,-0.882L0.656,-0.848L0.662,-0.813L0.667,-0.777L0.669,-0.742L0.67,-0.705L0.669,-0.669L0.667,-0.634L0.662,-0.598L0.656,-0.563L0.648,-0.529L0.638,-0.496L0.627,-0.463L0.614,-0.431L0.6,-0.399L0.585,-0.369L0.568,-0.34L0.549,-0.31L0.53,-0.283L0.509,-0.257L0.486,-0.23L0.463,-0.206L0.438,-0.182L0.413,-0.16L0.386,-0.14L0.358,-0.12L0.33,-0.101L0.3,-0.085L0.27,-0.069L0.239,-0.055L0.207,-0.042L0.174,-0.031L0.14,-0.021L0.106,-0.014L0.071,-0.008L0.036,-0.003L0,0L-0.036,0.001L-10.499,0.001L-10.536,0L-10.571,-0.003L-10.606,-0.008L-10.642,-0.014L-10.676,-0.021L-10.709,-0.031L-10.742,-0.042L-10.774,-0.055L-10.805,-0.069L-10.835,-0.085L-10.865,-0.101L-10.894,-0.12L-10.922,-0.14L-10.948,-0.16L-10.974,-0.182L-10.999,-0.206L-11.022,-0.23L-11.044,-0.257L-11.065,-0.283L-11.085,-0.31L-11.103,-0.34L-11.12,-0.369L-11.136,-0.399L-11.15,-0.431L-11.163,-0.463L-11.174,-0.496L-11.183,-0.529L-11.191,-0.563L-11.197,-0.598L-11.202,-0.634L-11.205,-0.669L-11.206,-0.705L-11.205,-0.742L-11.202,-0.777L-11.197,-0.813L-11.191,-0.848L-11.183,-0.882L-11.174,-0.915L-11.163,-0.948L-11.15,-0.98L-11.136,-1.012L-11.12,-1.042L-11.103,-1.071L-11.085,-1.1L-11.065,-1.128L-11.044,-1.154L-11.022,-1.181L-10.999,-1.205L-10.974,-1.228L-10.948,-1.25L-10.922,-1.271L-10.894,-1.291L-10.865,-1.309L-10.835,-1.326L-10.805,-1.342L-10.774,-1.356L-10.742,-1.369L-10.709,-1.38L-10.676,-1.39L-10.642,-1.397L-10.606,-1.403L-10.571,-1.408L-10.536,-1.411L-10.499,-1.412L-0.036,-1.412L0,-1.411ZM-10.492,-0.811L-10.505,-0.811L-10.511,-0.81L-10.516,-0.81L-10.521,-0.809L-10.526,-0.808L-10.531,-0.807L-10.536,-0.806L-10.54,-0.804L-10.544,-0.802L-10.549,-0.799L-10.554,-0.797L-10.558,-0.794L-10.562,-0.791L-10.566,-0.787L-10.57,-0.784L-10.574,-0.78L-10.578,-0.776L-10.581,-0.772L-10.584,-0.768L-10.587,-0.765L-10.59,-0.76L-10.593,-0.756L-10.595,-0.751L-10.597,-0.746L-10.599,-0.742L-10.601,-0.737L-10.602,-0.732L-10.603,-0.727L-10.604,-0.723L-10.604,-0.717L-10.605,-0.711L-10.605,-0.699L-10.604,-0.694L-10.604,-0.688L-10.601,-0.674L-10.599,-0.669L-10.595,-0.66L-10.593,-0.655L-10.59,-0.651L-10.587,-0.646L-10.584,-0.642L-10.581,-0.639L-10.578,-0.635L-10.566,-0.623L-10.554,-0.614L-10.549,-0.612L-10.544,-0.609L-10.536,-0.605L-10.531,-0.604L-10.526,-0.602L-10.516,-0.6L-10.511,-0.6L-10.505,-0.599L-0.03,-0.599L-0.02,-0.6L-0.009,-0.602L0,-0.605L0.009,-0.609L0.018,-0.614L0.027,-0.62L0.035,-0.627L0.042,-0.635L0.049,-0.642L0.055,-0.651L0.06,-0.66L0.063,-0.669L0.066,-0.679L0.068,-0.688L0.07,-0.699L0.07,-0.705L0.07,-0.712L0.069,-0.717L0.068,-0.723L0.068,-0.727L0.066,-0.732L0.065,-0.737L0.063,-0.742L0.062,-0.746L0.06,-0.751L0.057,-0.756L0.055,-0.76L0.052,-0.765L0.049,-0.768L0.046,-0.772L0.042,-0.776L0.039,-0.78L0.035,-0.784L0.031,-0.787L0.027,-0.791L0.022,-0.794L0.018,-0.797L0.014,-0.799L0.009,-0.802L0.004,-0.804L0,-0.806L-0.005,-0.807L-0.009,-0.808L-0.014,-0.809L-0.02,-0.81L-0.025,-0.81L-0.03,-0.811L-0.044,-0.811L-10.492,-0.811Z" style="fill:white;"/>
                    </g>
                    <g transform="matrix(1,0,0,1,0.00015,-0.0995)">
                        <g opacity="0.393906">
                            <g transform="matrix(0.707107,0.707107,0.707107,-0.707107,30.9551,-0.0915759)">
                                <clipPath id="_clip3">
                                    <path d="M3.502,-8.455L8.454,-3.502L3.502,1.45L-1.451,-3.502L3.502,-8.455Z" clip-rule="nonzero"/>
                                </clipPath>
                                <g clip-path="url(#_clip3)">
                                    <path d="M-1.451,-3.502L8.455,-3.502L4.82,-7.137C4.092,-7.864 2.911,-7.863 2.183,-7.136L-1.451,-3.502Z" style="fill:white;"/>
                                </g>
                            </g>
                        </g>
                    </g>
                </g>
            </g>
        </g>
    </g>
</svg>
