<?xml version="1.0" encoding="UTF-8" standalone="no"?>
<!DOCTYPE svg PUBLIC "-//W3C//DTD SVG 1.1//EN" "http://www.w3.org/Graphics/SVG/1.1/DTD/svg11.dtd">
<svg width="100%" height="100%" viewBox="0 0 28 34" version="1.1" xmlns="http://www.w3.org/2000/svg" xmlns:xlink="http://www.w3.org/1999/xlink" xml:space="preserve" xmlns:serif="http://www.serif.com/" style="fill-rule:evenodd;clip-rule:evenodd;stroke-linejoin:round;stroke-miterlimit:1.41421;">
    <g transform="matrix(1,0,0,1,-109,0)">
        <g id="Artboard1" transform="matrix(0.933333,0,0,1.13333,109,0)">
            <rect x="0" y="0" width="30" height="30" style="fill:none;"/>
            <clipPath id="_clip1">
                <rect x="0" y="0" width="30" height="30"/>
            </clipPath>
            <g clip-path="url(#_clip1)">
                <g id="Layer-1" serif:id="Layer 1" transform="matrix(1.07143,0,0,0.882353,-6.91404,-1.19956)">
                    <g transform="matrix(1,0,0,0.987597,34.4531,28.4463)">
                        <path d="M0,-20.427L-7,-27.427L-23.8,-27.427C-26.118,-27.427 -28,-25.545 -28,-23.227L-28,2.8C-28,5.117 -26.118,7 -23.8,7L-4.2,7C-1.882,7 0,5.117 0,2.8L0,-20.427Z" style="fill:rgb(39,202,129);"/>
                    </g>
                    <g transform="matrix(1,0,0,1,24.1016,19.3695)">
                        <path d="M0,-3.427L1.137,-5.524C1.212,-5.663 1.185,-5.77 1.057,-5.844C0.918,-5.908 0.812,-5.877 0.736,-5.748L-0.416,-3.635C-1.43,-4.083 -2.502,-4.307 -3.634,-4.307C-4.766,-4.307 -5.838,-4.083 -6.853,-3.635L-8.005,-5.748C-8.08,-5.876 -8.187,-5.908 -8.325,-5.844C-8.453,-5.77 -8.48,-5.663 -8.405,-5.524L-7.269,-3.427C-8.421,-2.84 -9.339,-2.021 -10.022,-0.969C-10.706,0.082 -11.047,1.233 -11.047,2.481L3.763,2.481C3.763,1.233 3.421,0.082 2.738,-0.969C2.055,-2.021 1.143,-2.84 0,-3.427M-6.572,-0.377C-6.695,-0.254 -6.841,-0.193 -7.012,-0.193C-7.183,-0.193 -7.327,-0.254 -7.445,-0.377C-7.562,-0.5 -7.621,-0.646 -7.621,-0.817C-7.621,-0.988 -7.562,-1.135 -7.445,-1.258C-7.327,-1.381 -7.183,-1.442 -7.012,-1.442C-6.842,-1.442 -6.695,-1.381 -6.572,-1.258C-6.449,-1.135 -6.388,-0.988 -6.388,-0.817C-6.388,-0.646 -6.449,-0.5 -6.572,-0.377M0.177,-0.377C0.059,-0.254 -0.085,-0.193 -0.256,-0.193C-0.427,-0.193 -0.573,-0.254 -0.696,-0.377C-0.819,-0.5 -0.88,-0.646 -0.88,-0.817C-0.88,-0.988 -0.819,-1.135 -0.696,-1.258C-0.573,-1.381 -0.427,-1.442 -0.256,-1.442C-0.085,-1.442 0.059,-1.381 0.177,-1.258C0.294,-1.135 0.353,-0.988 0.353,-0.817C0.353,-0.646 0.294,-0.5 0.177,-0.377" style="fill:white;fill-rule:nonzero;"/>
                    </g>
                    <g transform="matrix(1,0,0,1,-0.0101,-0.120025)">
                        <g opacity="0.393906">
                            <g transform="matrix(0.707107,0.707107,0.707107,-0.707107,30.9586,-0.0916114)">
                                <clipPath id="_clip2">
                                    <path d="M3.505,-8.461L8.461,-3.505L3.505,1.452L-1.452,-3.505L3.505,-8.461Z" clip-rule="nonzero"/>
                                </clipPath>
                                <g clip-path="url(#_clip2)">
                                    <path d="M-1.452,-3.505L8.461,-3.505L4.824,-7.141C4.096,-7.869 2.913,-7.869 2.185,-7.141L-1.452,-3.505Z" style="fill:white;"/>
                                </g>
                            </g>
                        </g>
                    </g>
                </g>
            </g>
        </g>
    </g>
</svg>
