<?xml version="1.0" encoding="UTF-8" standalone="no"?>
<!DOCTYPE svg PUBLIC "-//W3C//DTD SVG 1.1//EN" "http://www.w3.org/Graphics/SVG/1.1/DTD/svg11.dtd">
<svg width="100%" height="100%" viewBox="0 0 28 34" version="1.1" xmlns="http://www.w3.org/2000/svg" xmlns:xlink="http://www.w3.org/1999/xlink" xml:space="preserve" xmlns:serif="http://www.serif.com/" style="fill-rule:evenodd;clip-rule:evenodd;stroke-linejoin:round;stroke-miterlimit:1.41421;">
    <g transform="matrix(1,0,0,1,-305,0)">
        <g id="Artboard1" transform="matrix(0.933333,0,0,1.13333,305,0)">
            <rect x="0" y="0" width="30" height="30" style="fill:none;"/>
            <clipPath id="_clip1">
                <rect x="0" y="0" width="30" height="30"/>
            </clipPath>
            <g clip-path="url(#_clip1)">
                <g id="Layer-1" serif:id="Layer 1" transform="matrix(1.07143,0,0,0.882353,-6.91404,-1.20574)">
                    <g transform="matrix(1,0,0,1.00274,34.4531,28.3403)">
                        <path d="M0,-19.907L-7,-26.907L-23.8,-26.907C-26.118,-26.907 -28,-25.025 -28,-22.707L-28,2.8C-28,5.118 -26.118,7 -23.8,7L-4.2,7C-1.882,7 0,5.118 0,2.8L0,-19.907Z" style="fill:rgb(42,154,211);"/>
                    </g>
                    <g transform="matrix(1,0,0,1,16.0527,23.3039)">
                        <path d="M0,-6.525C-1.099,-4.618 -0.4,-1.723 0.815,0.032C1.421,0.909 2.036,1.696 2.877,1.696C2.893,1.696 2.909,1.696 2.925,1.695C3.32,1.679 3.606,1.558 3.882,1.44C4.192,1.308 4.513,1.171 5.016,1.171C5.494,1.171 5.799,1.303 6.095,1.431C6.386,1.557 6.686,1.688 7.128,1.679C8.076,1.662 8.658,0.812 9.171,0.062C9.707,-0.72 9.976,-1.481 10.066,-1.771L10.069,-1.783C10.087,-1.835 10.063,-1.891 10.013,-1.914C10.012,-1.914 10.007,-1.917 10.005,-1.917C9.839,-1.985 8.375,-2.634 8.359,-4.404C8.345,-5.842 9.457,-6.604 9.681,-6.742L9.691,-6.748C9.715,-6.764 9.732,-6.788 9.737,-6.817C9.743,-6.845 9.737,-6.874 9.721,-6.898C8.953,-8.021 7.776,-8.191 7.303,-8.211C7.234,-8.218 7.163,-8.221 7.092,-8.221C6.535,-8.221 6.002,-8.011 5.574,-7.842C5.278,-7.726 5.023,-7.625 4.847,-7.625C4.649,-7.625 4.392,-7.727 4.095,-7.845C3.697,-8.003 3.247,-8.182 2.769,-8.182C2.758,-8.182 2.747,-8.182 2.735,-8.181C1.626,-8.165 0.578,-7.53 0,-6.525" style="fill:white;fill-rule:nonzero;"/>
                    </g>
                    <g transform="matrix(1,0,0,1,23.3564,15.1631)">
                        <path d="M0,-3.163C-0.672,-3.136 -1.478,-2.722 -1.959,-2.158C-2.369,-1.684 -2.769,-0.893 -2.664,-0.096C-2.657,-0.046 -2.616,-0.007 -2.566,-0.003C-2.521,0 -2.475,0.002 -2.428,0.002C-1.771,0.002 -1.063,-0.362 -0.579,-0.947C-0.069,-1.565 0.188,-2.358 0.11,-3.068C0.104,-3.124 0.055,-3.165 0,-3.163" style="fill:white;fill-rule:nonzero;"/>
                    </g>
                    <g>
                        <g opacity="0.393906">
                            <g transform="matrix(0.707056,0.707157,0.707157,-0.707056,30.9543,-0.0927939)">
                                <clipPath id="_clip2">
                                    <path d="M3.5,-8.449L8.449,-3.499L3.499,1.45L-1.45,-3.5L3.5,-8.449Z" clip-rule="nonzero"/>
                                </clipPath>
                                <g clip-path="url(#_clip2)">
                                    <path d="M-1.45,-3.5L8.449,-3.5L4.817,-7.132C4.091,-7.859 2.91,-7.859 2.182,-7.131L-1.45,-3.5Z" style="fill:white;"/>
                                </g>
                            </g>
                        </g>
                    </g>
                </g>
            </g>
        </g>
    </g>
</svg>
