<?xml version="1.0" encoding="UTF-8" standalone="no"?>
<!DOCTYPE svg PUBLIC "-//W3C//DTD SVG 1.1//EN" "http://www.w3.org/Graphics/SVG/1.1/DTD/svg11.dtd">
<svg width="100%" height="100%" viewBox="0 0 28 34" version="1.1" xmlns="http://www.w3.org/2000/svg" xmlns:xlink="http://www.w3.org/1999/xlink" xml:space="preserve" xmlns:serif="http://www.serif.com/" style="fill-rule:evenodd;clip-rule:evenodd;stroke-linejoin:round;stroke-miterlimit:1.41421;">
    <g transform="matrix(1,0,0,1,-44,0)">
        <g id="Artboard1" transform="matrix(0.933333,0,0,1.13333,44,0)">
            <rect x="0" y="0" width="30" height="30" style="fill:none;"/>
            <clipPath id="_clip1">
                <rect x="0" y="0" width="30" height="30"/>
            </clipPath>
            <g clip-path="url(#_clip1)">
                <g id="Layer-1" serif:id="Layer 1" transform="matrix(1.07143,0,0,0.882353,-0.00621429,0.00469784)">
                    <g transform="matrix(1,0,0,0.987597,28.0058,27.0815)">
                        <path d="M0,-20.427L-7,-27.427L-23.8,-27.427C-26.118,-27.427 -28,-25.545 -28,-23.227L-28,2.8C-28,5.118 -26.118,7 -23.8,7L-4.2,7C-1.882,7 0,5.118 0,2.8L0,-20.427Z" style="fill:rgb(219,54,43);"/>
                    </g>
                    <g transform="matrix(1,0,0,1,21.7891,13.8526)">
                        <path d="M0,7.167C-0.548,6.177 -2.95,5.546 -5.071,5.426C-5.263,5.221 -5.458,5.005 -5.657,4.778C-7.48,2.694 -8.218,-0.335 -8.494,-1.939C-8.526,-2.279 -8.563,-2.562 -8.593,-2.772C-8.617,-2.94 -8.669,-3.29 -9.032,-3.29C-9.148,-3.29 -9.261,-3.24 -9.341,-3.151C-9.47,-3.003 -9.451,-2.844 -9.428,-2.661C-9.402,-2.45 -9.363,-2.168 -9.308,-1.847C-9.153,-0.217 -9.08,2.884 -10.333,5.348C-10.464,5.605 -10.594,5.852 -10.724,6.087C-13.07,6.77 -14.963,7.986 -15.241,8.995C-15.341,9.36 -15.254,9.711 -14.995,9.982C-14.692,10.298 -14.336,10.457 -13.935,10.457C-12.825,10.457 -11.56,9.222 -10.174,6.784C-9.558,6.622 -8.945,6.509 -8.353,6.449C-8.123,6.426 -7.75,6.377 -7.52,6.342C-6.888,6.244 -6.173,6.205 -5.438,6.23C-3.737,7.997 -2.347,8.894 -1.305,8.894C-0.745,8.894 -0.281,8.62 0,8.125C0.173,7.819 0.173,7.479 0,7.167M-13.936,9.639C-14.109,9.639 -14.257,9.567 -14.403,9.416C-14.462,9.354 -14.476,9.301 -14.451,9.213C-14.308,8.693 -13.107,7.802 -11.352,7.155C-12.343,8.721 -13.292,9.639 -13.936,9.639M-7.646,5.533C-7.864,5.567 -8.218,5.613 -8.436,5.636C-8.834,5.675 -9.243,5.737 -9.655,5.822C-9.638,5.788 -9.621,5.755 -9.604,5.721C-8.989,4.513 -8.608,3.064 -8.467,1.404C-7.903,2.982 -7.167,4.296 -6.274,5.317C-6.248,5.348 -6.22,5.379 -6.194,5.409C-6.709,5.422 -7.196,5.464 -7.646,5.533M-0.715,7.724C-0.851,7.964 -1.044,8.076 -1.321,8.076L-1.322,8.076C-1.974,8.076 -2.975,7.459 -4.174,6.329C-2.318,6.562 -0.959,7.123 -0.716,7.563C-0.681,7.628 -0.681,7.662 -0.715,7.724" style="fill:white;fill-rule:nonzero;"/>
                    </g>
                    <g transform="matrix(1,0,0,1,0,-0.107324)">
                        <g opacity="0.393906">
                            <g transform="matrix(0.707107,0.707107,0.707107,-0.707107,24.5059,-1.44775)">
                                <clipPath id="_clip2">
                                    <path d="M3.5,-8.45L8.45,-3.5L3.5,1.45L-1.45,-3.5L3.5,-8.45Z" clip-rule="nonzero"/>
                                </clipPath>
                                <g clip-path="url(#_clip2)">
                                    <path d="M-1.45,-3.5L8.45,-3.5L4.818,-7.132C4.09,-7.859 2.91,-7.859 2.182,-7.132L-1.45,-3.5Z" style="fill:white;"/>
                                </g>
                            </g>
                        </g>
                    </g>
                </g>
            </g>
        </g>
    </g>
</svg>
