<?xml version="1.0" encoding="UTF-8" standalone="no"?>
<!DOCTYPE svg PUBLIC "-//W3C//DTD SVG 1.1//EN" "http://www.w3.org/Graphics/SVG/1.1/DTD/svg11.dtd">
<svg width="100%" height="100%" viewBox="0 0 28 34" version="1.1" xmlns="http://www.w3.org/2000/svg" xmlns:xlink="http://www.w3.org/1999/xlink" xml:space="preserve" xmlns:serif="http://www.serif.com/" style="fill-rule:evenodd;clip-rule:evenodd;stroke-linejoin:round;stroke-miterlimit:1.41421;">
    <g transform="matrix(1,0,0,1,-346,0)">
        <g id="Artboard1" transform="matrix(0.933333,0,0,1.13333,346,0)">
            <rect x="0" y="0" width="30" height="30" style="fill:none;"/>
            <clipPath id="_clip1">
                <rect x="0" y="0" width="30" height="30"/>
            </clipPath>
            <g clip-path="url(#_clip1)">
                <g id="Layer-1" serif:id="Layer 1" transform="matrix(1.07143,0,0,0.882353,0,0)">
                    <g transform="matrix(1,0,0,1,28,27)">
                        <path d="M0,-20L-7,-27L-23.8,-27C-26.118,-27 -28,-25.118 -28,-22.8L-28,2.8C-28,5.118 -26.118,7 -23.8,7L-4.2,7C-1.882,7 0,5.118 0,2.8L0,-20Z" style="fill:rgb(42,183,211);"/>
                    </g>
                    <g transform="matrix(-1,-0,-0,1,17.7295,15.0626)">
                        <path d="M-7.624,7.036L-3.93,7.036L0,2.25L-1.848,0L-7.624,7.036Z" style="fill:white;"/>
                    </g>
                    <g transform="matrix(1,0,0,1,21.7305,15.1992)">
                        <path d="M0,6.749L3.306,6.749L-2.153,0.1L-3.807,2.114L0,6.749ZM3.623,7.05L-0.071,7.05C-0.116,7.05 -0.159,7.029 -0.187,6.994L-4.117,2.209C-4.162,2.154 -4.162,2.074 -4.117,2.019L-2.27,-0.232C-2.213,-0.301 -2.094,-0.301 -2.037,-0.232L3.739,6.805C3.775,6.849 3.783,6.911 3.759,6.964C3.733,7.016 3.681,7.05 3.623,7.05" style="fill:white;fill-rule:nonzero;"/>
                    </g>
                    <g transform="matrix(1,0,0,1,10.8267,22.0988)">
                        <path d="M0,-9.863L8.097,0L-8.097,0L0,-9.863Z" style="fill:white;"/>
                    </g>
                    <g transform="matrix(1,0,0,1,3.1001,12.3938)">
                        <path d="M0,9.53L15.454,9.53L7.727,0.118L0,9.53ZM15.824,9.88L-0.37,9.88C-0.438,9.88 -0.5,9.841 -0.528,9.78C-0.557,9.718 -0.548,9.646 -0.505,9.593L7.591,-0.269C7.658,-0.35 7.795,-0.35 7.862,-0.269L15.959,9.593C16.001,9.646 16.011,9.718 15.982,9.78C15.953,9.841 15.891,9.88 15.824,9.88" style="fill:white;fill-rule:nonzero;"/>
                    </g>
                    <g transform="matrix(1,0,0,1,18.2354,11.8694)">
                        <ellipse cx="-0.001" cy="-1.963" rx="1.963" ry="1.963" style="fill:white;"/>
                    </g>
                    <g transform="matrix(1,0,0,1,0,-0.0944)">
                        <g opacity="0.393906">
                            <g transform="matrix(0.707107,0.707107,0.707107,-0.707107,24.5,-1.35555)">
                                <clipPath id="_clip2">
                                    <path d="M3.5,-8.45L8.45,-3.5L3.5,1.45L-1.45,-3.5L3.5,-8.45Z" clip-rule="nonzero"/>
                                </clipPath>
                                <g clip-path="url(#_clip2)">
                                    <path d="M-1.45,-3.5L8.45,-3.5L4.818,-7.132C4.09,-7.859 2.91,-7.859 2.182,-7.132L-1.45,-3.5Z" style="fill:white;"/>
                                </g>
                            </g>
                        </g>
                    </g>
                </g>
            </g>
        </g>
    </g>
</svg>
