<svg xmlns="http://www.w3.org/2000/svg" xmlns:xlink="http://www.w3.org/1999/xlink" viewBox="0 0 170 167.3"><defs><style>.cls-1{fill:#98d7f9;}.cls-2{fill:url(#linear-gradient);}.cls-3{fill:#fff;}</style><linearGradient id="linear-gradient" x1="1497.56" y1="2383.25" x2="1604.97" y2="2490.66" gradientTransform="matrix(0.81, 0.58, -0.58, 0.81, 242.29, -2800.87)" gradientUnits="userSpaceOnUse"><stop offset="0" stop-color="#00a0e6"/><stop offset="1" stop-color="#00b6ea"/></linearGradient></defs><title>Asset 7</title><g id="Layer_2" data-name="Layer 2"><g id="Layer_1-2" data-name="Layer 1"><ellipse class="cls-1" cx="85" cy="83.6" rx="85" ry="83.6"/><ellipse class="cls-2" cx="85" cy="83.6" rx="77.3" ry="75.9"/><path class="cls-3" d="M29.4,97.9,42.8,77H31a12.1,12.1,0,0,1-.1-2,11.8,11.8,0,0,1,.1-1.9H50.1l.2.6L36.8,94.7H49.5a13.9,13.9,0,0,1,.1,2,11.7,11.7,0,0,1-.1,1.9H29.6Z"/><path class="cls-3" d="M68,81.8q0-2.9-1.5-4.1a7,7,0,0,0-4.3-1.1l-3.3.3-3,.7a7.7,7.7,0,0,1-.9-3.9,23,23,0,0,1,3.7-.8l3.9-.3q5,0,7.6,2.3T72.8,82V98l-4.2.8a30.3,30.3,0,0,1-5.1.4,19.8,19.8,0,0,1-4.4-.4,9,9,0,0,1-3.3-1.4,6.7,6.7,0,0,1-2.1-2.5,8.5,8.5,0,0,1-.7-3.7,7.6,7.6,0,0,1,3.2-6.4A10.5,10.5,0,0,1,59.6,83a15.6,15.6,0,0,1,4.1-.5h2.6l1.7.2Zm0,4.8-1.9-.2H64.1a8.1,8.1,0,0,0-4.7,1.1A4,4,0,0,0,57.8,91a4.3,4.3,0,0,0,.5,2.3,3.8,3.8,0,0,0,1.4,1.3,4.7,4.7,0,0,0,1.8.5h4.2l2.2-.4Z"/><path class="cls-3" d="M77.9,73.1h4.2q.2.7.3,2a18.7,18.7,0,0,1,.1,2.1,10.2,10.2,0,0,1,1.3-1.7A9.7,9.7,0,0,1,85.5,74a9.1,9.1,0,0,1,5.1-1.5q4.4,0,6.5,2.5t2.1,7.4V98.6H94.3V83.8a9.7,9.7,0,0,0-1.1-5.2,3.9,3.9,0,0,0-3.5-1.7,7,7,0,0,0-2.6.5A5.9,5.9,0,0,0,84.9,79a7.7,7.7,0,0,0-1.5,2.7,12.4,12.4,0,0,0-.6,4V98.6H77.9Z"/><path class="cls-3" d="M118.8,95.3q4.4.1,6.4,1.9a6.3,6.3,0,0,1,2,4.9,6.6,6.6,0,0,1-1,3.7,9.3,9.3,0,0,1-2.9,2.8,14.6,14.6,0,0,1-4.3,1.8,22.6,22.6,0,0,1-5.4.6q-5.1,0-7.8-1.6a5.4,5.4,0,0,1-2.7-5,6.4,6.4,0,0,1,1.1-3.7,7.9,7.9,0,0,1,2.8-2.6,5.9,5.9,0,0,1-1.7-1.6,4.1,4.1,0,0,1-.7-2.4,6,6,0,0,1,.8-3.2,8.6,8.6,0,0,1,2.2-2.4,8.5,8.5,0,0,1-2.6-3,8.4,8.4,0,0,1-1-4.1,8.9,8.9,0,0,1,.7-3.5,8.2,8.2,0,0,1,2-2.9,9.4,9.4,0,0,1,3.3-1.9,13,13,0,0,1,4.4-.7,12,12,0,0,1,4,.6,11.2,11.2,0,0,1,3.1,1.6,8.1,8.1,0,0,1,2.7-1.3A12.6,12.6,0,0,1,128,73a10.2,10.2,0,0,1,.2,2.1c0,.4,0,.7,0,1.1s-.1.8-.1,1.2h-4.5a7.1,7.1,0,0,1,.8,1.8,8,8,0,0,1,.3,2.3,8.8,8.8,0,0,1-.7,3.7,8,8,0,0,1-2.1,2.8,9.5,9.5,0,0,1-3.3,1.8,13.1,13.1,0,0,1-4.1.6,14,14,0,0,1-3.7-.4,5.1,5.1,0,0,0-1.4,1.2,2.7,2.7,0,0,0-.7,1.8,2.2,2.2,0,0,0,.6,1.6q.6.7,2.9.7Zm-6.7,3.9a4.1,4.1,0,0,0-3.4,1.2,4.3,4.3,0,0,0-1.1,3,3,3,0,0,0,1.7,2.9,6.4,6.4,0,0,0,1.9.6l2.5.2a12.3,12.3,0,0,0,6.2-1.3,3.8,3.8,0,0,0,2.2-3.3,2.8,2.8,0,0,0-.9-2.3,5.8,5.8,0,0,0-3.5-.8Zm2.3-12.4a5,5,0,0,0,4-1.5,5.6,5.6,0,0,0,1.3-3.8,5.8,5.8,0,0,0-1.3-3.9,4.9,4.9,0,0,0-4-1.5,4.9,4.9,0,0,0-4,1.5,5.9,5.9,0,0,0-1.3,3.9,5.7,5.7,0,0,0,1.3,3.8A4.9,4.9,0,0,0,114.4,86.8Z"/><path class="cls-3" d="M134.2,77h-3.2a6,6,0,0,1-.1-.9c0-.3,0-.7,0-1s0-.7,0-1a6,6,0,0,1,.1-.9H139V98.6h-4.8Z"/><circle class="cls-3" cx="135.9" cy="65.3" r="3"/></g></g></svg>