<?xml version="1.0" encoding="UTF-8" standalone="no"?>
<!DOCTYPE svg PUBLIC "-//W3C//DTD SVG 1.1//EN" "http://www.w3.org/Graphics/SVG/1.1/DTD/svg11.dtd">
<svg width="100%" height="100%" viewBox="0 0 196 86" version="1.1" xmlns="http://www.w3.org/2000/svg" xmlns:xlink="http://www.w3.org/1999/xlink" xml:space="preserve" xmlns:serif="http://www.serif.com/" style="fill-rule:evenodd;clip-rule:evenodd;stroke-linejoin:round;stroke-miterlimit:1.41421;">
    <g transform="matrix(1,0,0,1,-921,-845)">
        <g id="login-logo-svg" transform="matrix(1.15976,0,0,0.508876,921,649.083)">
            <rect x="0" y="385" width="169" height="169" style="fill:none;"/>
            <g id="Layer-1" serif:id="Layer 1" transform="matrix(0.256013,0,0,0.583472,24.1152,418.033)">
                <g transform="matrix(1,0,0,1,47.7788,67.1373)">
                    <path d="M0,42.142C-0.816,45.9 -1.389,48.921 -1.716,51.209C-2.042,53.496 -2.205,55.373 -2.205,56.844C-2.205,58.314 -2.001,60.03 -1.592,61.989C-1.184,63.949 -0.163,65.746 1.47,67.379C4.247,69.829 7.84,71.056 12.251,71.056C15.028,71.056 17.437,70.688 19.479,69.954C21.521,69.218 23.195,68.196 24.502,66.89C26.952,64.604 28.667,61.745 29.647,58.314C30.627,54.884 31.444,51.781 32.098,49.002L56.845,-67.137L103.889,-67.137L79.631,45.574C78.978,48.84 78.161,52.597 77.182,56.844C76.201,61.091 74.895,65.42 73.261,69.829C71.627,74.241 69.626,78.569 67.259,82.816C64.89,87.064 61.99,90.82 58.56,94.087C54.966,97.518 50.964,100.253 46.554,102.296C42.144,104.337 37.733,105.847 33.322,106.828C28.912,107.808 24.625,108.462 20.459,108.788C16.294,109.116 12.578,109.279 9.311,109.279C6.37,109.279 3.104,109.196 -0.49,109.035C-4.083,108.871 -7.8,108.42 -11.639,107.685C-15.477,106.95 -19.234,105.93 -22.91,104.622C-26.585,103.315 -29.893,101.52 -32.833,99.232C-36.1,96.783 -38.713,94.128 -40.673,91.27C-42.634,88.411 -44.145,85.511 -45.207,82.571C-46.269,79.631 -46.962,76.691 -47.29,73.751C-47.616,70.809 -47.779,68.033 -47.779,65.42C-47.779,64.113 -47.698,62.358 -47.535,60.151C-47.371,57.947 -47.166,55.66 -46.922,53.291C-46.677,50.922 -46.39,48.636 -46.064,46.431C-45.737,44.224 -45.411,42.389 -45.084,40.917L-44.594,38.957L0.735,38.957L0,42.142Z" style="fill:white;fill-rule:nonzero;"/>
                </g>
                <g transform="matrix(1,0,0,1,217.036,102.665)">
                    <path d="M0,13.966C-1.306,14.457 -2.777,14.945 -4.41,15.437C-6.207,15.926 -8.29,16.417 -10.658,16.906C-13.027,17.397 -15.355,17.805 -17.642,18.13C-21.072,18.621 -24.462,19.235 -27.81,19.969C-31.158,20.704 -34.058,22.297 -36.508,24.746C-39.122,27.361 -40.429,30.709 -40.429,34.792C-40.429,36.426 -40.184,38.019 -39.693,39.57C-39.204,41.122 -38.06,42.552 -36.263,43.858C-34.793,45.001 -33.241,45.695 -31.608,45.942C-29.974,46.186 -28.505,46.308 -27.197,46.308C-24.42,46.308 -21.725,45.982 -19.111,45.328C-16.498,44.676 -14.048,43.532 -11.761,41.898C-7.024,38.632 -3.635,34.671 -1.593,30.015C0.45,25.36 1.879,21.235 2.696,17.641L4.166,11.761C2.696,12.741 1.307,13.475 0,13.966M-62.726,-32.589C-59.295,-37.815 -55.456,-42.226 -51.209,-45.82C-47.289,-48.923 -43.246,-51.415 -39.081,-53.293C-34.916,-55.172 -30.792,-56.56 -26.707,-57.459C-22.624,-58.357 -18.621,-58.929 -14.701,-59.173C-10.782,-59.418 -7.105,-59.541 -3.675,-59.541C7.922,-59.541 16.743,-58.724 22.788,-57.091C28.83,-55.457 33.486,-53.742 36.753,-51.945C42.961,-48.351 47.371,-44.023 49.984,-38.96C52.596,-33.895 53.905,-28.097 53.905,-21.562C53.905,-18.296 53.62,-14.988 53.046,-11.639C52.475,-8.291 51.78,-4.901 50.964,-1.471L40.182,47.532C39.856,49.167 39.53,51.005 39.202,53.046C38.877,55.089 38.713,56.763 38.713,58.069C38.713,59.213 38.835,60.356 39.081,61.499C39.328,62.643 39.937,63.704 40.917,64.685C41.898,65.664 42.878,66.237 43.859,66.401L43.614,68.851L-3.43,68.851L-3.92,56.355L-4.655,56.355C-6.942,58.641 -9.474,60.928 -12.251,63.215C-15.028,65.503 -18.05,67.299 -21.317,68.604C-25.074,70.238 -29.28,71.464 -33.935,72.28C-38.591,73.099 -43.042,73.507 -47.289,73.507C-48.596,73.507 -50.271,73.465 -52.313,73.384C-54.354,73.301 -56.601,73.016 -59.05,72.527C-61.5,72.035 -63.992,71.341 -66.523,70.443C-69.055,69.545 -71.464,68.36 -73.751,66.891C-77.509,64.44 -80.571,61.133 -82.94,56.966C-85.308,52.802 -86.492,47.615 -86.492,41.408C-86.492,34.71 -85.308,28.993 -82.94,24.257C-80.571,19.521 -77.835,15.682 -74.732,12.741C-71.955,10.127 -68.891,8.003 -65.543,6.37C-62.195,4.737 -58.846,3.389 -55.498,2.327C-52.148,1.265 -48.923,0.49 -45.819,-0.001L-37.978,-1.225L-22.787,-2.941C-15.6,-3.758 -9.76,-4.573 -5.268,-5.389C-0.775,-6.209 2.696,-7.513 5.146,-9.31C7.105,-10.781 8.412,-12.414 9.065,-14.212C9.72,-16.009 10.046,-17.97 10.046,-20.092C10.046,-21.562 9.76,-23.155 9.188,-24.87C8.617,-26.586 7.432,-28.097 5.636,-29.403C4.166,-30.384 2.165,-31.077 -0.368,-31.485C-2.899,-31.894 -5.063,-32.098 -6.86,-32.098C-10.618,-32.098 -13.599,-31.649 -15.804,-30.751C-18.009,-29.853 -19.765,-28.75 -21.072,-27.443C-22.706,-25.81 -23.972,-23.808 -24.87,-21.44C-25.768,-19.071 -26.381,-16.744 -26.707,-14.457L-70.321,-14.457C-68.688,-21.317 -66.156,-27.361 -62.726,-32.589" style="fill:white;fill-rule:nonzero;"/>
                </g>
                <g transform="matrix(-1,-0,-0,1,306.101,-0.0004)">
                    <path d="M-8.085,171.516L36.508,171.516L0,0L-44.593,0L-8.085,171.516Z" style="fill:white;fill-rule:nonzero;"/>
                </g>
                <g transform="matrix(1,0,0,1,417.828,102.665)">
                    <path d="M0,13.966C-1.307,14.457 -2.777,14.945 -4.409,15.437C-6.206,15.926 -8.288,16.417 -10.658,16.906C-13.028,17.397 -15.354,17.805 -17.642,18.13C-21.073,18.621 -24.46,19.235 -27.811,19.969C-31.158,20.704 -34.057,22.297 -36.508,24.746C-39.121,27.361 -40.429,30.709 -40.429,34.792C-40.429,36.426 -40.184,38.019 -39.693,39.57C-39.203,41.122 -38.061,42.552 -36.265,43.858C-34.792,45.001 -33.24,45.695 -31.607,45.942C-29.974,46.186 -28.505,46.308 -27.196,46.308C-24.421,46.308 -21.726,45.982 -19.11,45.328C-16.498,44.676 -14.047,43.532 -11.762,41.898C-7.022,38.632 -3.636,34.671 -1.592,30.015C0.448,25.36 1.878,21.235 2.694,17.641L4.166,11.761C2.694,12.741 1.307,13.475 0,13.966M-62.724,-32.589C-59.295,-37.815 -55.456,-42.226 -51.209,-45.82C-47.289,-48.923 -43.246,-51.415 -39.08,-53.293C-34.916,-55.172 -30.79,-56.56 -26.706,-57.459C-22.625,-58.357 -18.622,-58.929 -14.701,-59.173C-10.781,-59.418 -7.105,-59.541 -3.674,-59.541C7.922,-59.541 16.745,-58.724 22.787,-57.091C28.831,-55.457 33.487,-53.742 36.753,-51.945C42.961,-48.351 47.37,-44.023 49.983,-38.96C52.599,-33.895 53.904,-28.097 53.904,-21.562C53.904,-18.296 53.617,-14.988 53.046,-11.639C52.477,-8.291 51.78,-4.901 50.964,-1.471L40.184,47.532C39.855,49.167 39.531,51.005 39.203,53.046C38.876,55.089 38.714,56.763 38.714,58.069C38.714,59.213 38.837,60.356 39.082,61.499C39.325,62.643 39.938,63.704 40.919,64.685C41.899,65.664 42.88,66.237 43.86,66.401L43.615,68.851L-3.431,68.851L-3.919,56.355L-4.654,56.355C-6.941,58.641 -9.474,60.928 -12.25,63.215C-15.029,65.503 -18.049,67.299 -21.316,68.604C-25.073,70.238 -29.278,71.464 -33.936,72.28C-38.59,73.099 -43.042,73.507 -47.289,73.507C-48.596,73.507 -50.271,73.465 -52.311,73.384C-54.354,73.301 -56.601,73.016 -59.05,72.527C-61.5,72.035 -63.99,71.341 -66.521,70.443C-69.054,69.545 -71.464,68.36 -73.751,66.891C-77.508,64.44 -80.57,61.133 -82.94,56.966C-85.308,52.802 -86.491,47.615 -86.491,41.408C-86.491,34.71 -85.308,28.993 -82.94,24.257C-80.57,19.521 -77.834,15.682 -74.73,12.741C-71.954,10.127 -68.894,8.003 -65.541,6.37C-62.193,4.737 -58.845,3.389 -55.497,2.327C-52.148,1.265 -48.924,0.49 -45.818,-0.001L-37.979,-1.225L-22.787,-2.941C-15.599,-3.758 -9.761,-4.573 -5.269,-5.389C-0.775,-6.209 2.694,-7.513 5.145,-9.31C7.105,-10.781 8.412,-12.414 9.066,-14.212C9.721,-16.009 10.047,-17.97 10.047,-20.092C10.047,-21.562 9.759,-23.155 9.188,-24.87C8.616,-26.586 7.434,-28.097 5.637,-29.403C4.166,-30.384 2.163,-31.077 -0.368,-31.485C-2.9,-31.894 -5.063,-32.098 -6.86,-32.098C-10.617,-32.098 -13.6,-31.649 -15.803,-30.751C-18.009,-29.853 -19.765,-28.75 -21.073,-27.443C-22.706,-25.81 -23.972,-23.808 -24.871,-21.44C-25.769,-19.071 -26.38,-16.744 -26.706,-14.457L-70.319,-14.457C-68.687,-21.317 -66.155,-27.361 -62.724,-32.589" style="fill:white;fill-rule:nonzero;"/>
                </g>
            </g>
        </g>
    </g>
</svg>
