<?xml version="1.0" encoding="UTF-8" standalone="no"?>
<!DOCTYPE svg PUBLIC "-//W3C//DTD SVG 1.1//EN" "http://www.w3.org/Graphics/SVG/1.1/DTD/svg11.dtd">
<svg width="100%" height="100%" viewBox="0 0 81 30" version="1.1" xmlns="http://www.w3.org/2000/svg" xmlns:xlink="http://www.w3.org/1999/xlink" xml:space="preserve" xmlns:serif="http://www.serif.com/" style="fill-rule:evenodd;clip-rule:evenodd;stroke-linejoin:round;stroke-miterlimit:1.41421;">
    <g transform="matrix(1,0,0,1,-86,-121)">
        <g id="zangi-logo" transform="matrix(0.207141,0,0,0.207141,8.53753,91.7173)">
            <path d="M473.045,187.186C464.922,195.292 460.803,205.203 460.803,216.646C460.803,228.105 464.922,238.023 473.045,246.13C481.132,254.217 491.043,258.318 502.502,258.318C510.364,258.318 517.526,256.374 523.836,252.531C523.968,254.187 524.639,255.619 525.812,256.77C527.099,258.101 528.717,258.777 530.62,258.777L537.497,258.777C539.357,258.777 540.969,258.109 542.29,256.788C543.227,255.851 543.831,254.756 544.096,253.521L544.301,253.521L544.3,184.672C544.214,182.931 543.541,181.406 542.297,180.141C540.993,178.816 539.378,178.145 537.497,178.145L531.483,178.145C529.639,178.145 528.037,178.812 526.738,180.112C526.218,180.611 525.8,181.162 525.485,181.764C518.774,177.238 511.053,174.948 502.502,174.948C491.041,174.948 481.129,179.067 473.045,187.186ZM487.524,231.65C483.328,227.455 481.289,222.546 481.289,216.646C481.289,210.731 483.326,205.832 487.519,201.671L487.526,201.665C491.687,197.488 496.585,195.457 502.502,195.457C508.418,195.457 513.326,197.488 517.503,201.665C521.648,205.827 523.663,210.727 523.663,216.646C523.663,222.55 521.646,227.459 517.505,231.65C513.326,235.827 508.419,237.86 502.502,237.86C496.585,237.86 491.686,235.828 487.524,231.65Z" style="fill:rgb(17,177,250);fill-rule:nonzero;"/>
            <path d="M573.106,181.778C572.787,181.177 572.371,180.629 571.862,180.141C570.559,178.817 568.952,178.145 567.087,178.145L561.074,178.145C559.209,178.145 557.602,178.817 556.316,180.124C554.992,181.428 554.32,183.032 554.32,184.896L554.27,252.187C554.313,253.98 554.972,255.529 556.232,256.789C557.551,258.109 559.163,258.777 561.022,258.777L568.001,258.777C569.827,258.777 571.422,258.109 572.742,256.788C573.68,255.851 574.284,254.756 574.548,253.521L574.75,253.521L574.856,216.899L574.856,216.646C574.856,210.73 576.886,205.83 581.065,201.667C585.245,197.488 590.152,195.457 596.068,195.457C601.97,195.457 606.878,197.489 611.073,201.667C611.924,202.519 612.711,203.434 613.411,204.387L613.645,204.669C615.845,207.772 617.06,211.362 617.256,215.274L617.207,252.187C617.25,253.991 617.933,255.546 619.203,256.772C620.491,258.101 622.09,258.777 623.959,258.777L630.913,258.777C632.778,258.777 634.384,258.104 635.67,256.797C636.994,255.493 637.665,253.888 637.665,252.025L637.717,214.819L637.715,214.623C637.339,206.459 634.812,199.071 630.204,192.659L629.899,192.19C628.601,190.476 627.152,188.796 625.577,187.186C617.439,179.064 607.511,174.948 596.068,174.948C587.509,174.948 579.795,177.245 573.106,181.778Z" style="fill:rgb(17,177,250);fill-rule:nonzero;"/>
            <path d="M740.384,144.836L739.983,145.122C739.5,145.567 739.045,146.023 738.641,146.461C737.961,147.18 737.366,147.958 736.872,148.778C735.727,150.691 735.043,152.879 734.835,155.304C734.611,158.518 735.297,161.463 736.858,164.024C737.3,164.792 737.844,165.53 738.529,166.28L738.606,166.374C741.248,169.373 744.621,171.045 748.617,171.344C749.068,171.381 749.512,171.401 749.951,171.401C753.482,171.401 756.67,170.201 759.442,167.83L759.77,167.584C762.891,164.892 764.636,161.467 764.955,157.404L764.955,157.396C765.256,153.296 764.042,149.634 761.357,146.523C758.696,143.374 755.265,141.625 751.166,141.326C750.742,141.293 750.323,141.276 749.907,141.276C746.368,141.276 743.166,142.469 740.384,144.836Z" style="fill:rgb(17,177,250);fill-rule:nonzero;"/>
            <path d="M656.829,187.186C649.16,194.838 645.06,204.123 644.64,214.757C644.605,215.379 644.588,216.008 644.588,216.646C644.588,217.266 644.605,217.887 644.639,218.481C645.06,229.141 649.16,238.444 656.833,246.133C662.257,251.523 668.511,255.189 675.421,257.026L675.686,257.076L675.698,257.076C679.048,257.902 682.6,258.318 686.261,258.318C688.662,258.318 691.035,258.143 693.322,257.793C698.416,256.988 703.193,255.248 707.505,252.629C707.554,252.599 707.602,252.57 707.65,252.54L707.65,257.144L707.604,257.714C707.482,259.238 706.862,260.541 705.685,261.718C704.994,262.437 704.241,262.938 703.406,263.244C698.589,264.924 693.366,265.777 687.869,265.777C684.476,265.781 681.119,265.495 677.958,264.89L677.689,264.838C676.016,264.512 674.361,264.086 672.8,263.574L671.306,263.061C671.037,262.971 670.76,262.865 670.477,262.746L668.391,261.891L668.391,262.071L666.315,261.379C664.625,260.838 662.946,260.957 661.334,261.731C659.678,262.515 658.52,263.821 657.892,265.619L655.633,272.193L655,274.18L655.299,274.18C655.256,275.252 655.483,276.308 655.978,277.338C656.444,278.307 657.078,279.098 657.877,279.706L657.562,280.02L662.693,281.774L663.865,282.208C671.064,284.874 678.911,286.246 687.197,286.286L687.71,286.286C694.808,286.237 701.69,285.213 708.171,283.239L708.459,283.163C708.919,283.009 709.396,282.84 709.89,282.653C710.469,282.475 711.051,282.269 711.638,282.032C714.731,280.725 717.598,278.765 720.159,276.204C724.937,271.441 727.572,265.67 727.978,259.081C727.997,258.887 728.015,258.537 728.027,257.66L728.06,257.66L728.06,184.727C728.039,182.954 727.368,181.403 726.082,180.141C724.781,178.817 723.173,178.145 721.307,178.145L715.293,178.145C713.436,178.145 711.828,178.81 710.512,180.124C709.995,180.621 709.576,181.173 709.26,181.773C702.545,177.243 694.819,174.948 686.261,174.948C674.8,174.948 664.897,179.067 656.829,187.186ZM671.31,231.651C667.131,227.457 665.099,222.547 665.099,216.646C665.099,210.73 667.13,205.83 671.307,201.667C675.488,197.488 680.378,195.457 686.261,195.457C692.178,195.457 697.086,197.488 701.266,201.67C705.443,205.831 707.475,210.73 707.475,216.646C707.475,222.136 705.731,226.756 702.204,230.711L701.265,231.65C697.086,235.827 692.178,237.86 686.261,237.86C685.464,237.86 684.67,237.817 683.891,237.736L683.799,237.655L683.287,237.655C678.745,237.061 674.714,235.04 671.31,231.651Z" style="fill:rgb(17,177,250);fill-rule:nonzero;"/>
            <path d="M745.792,178.018L745.656,178.025C744.055,178.176 742.66,178.833 741.532,179.963C740.579,180.883 739.966,181.984 739.702,183.247L739.5,183.247L739.501,252.187C739.546,253.991 740.228,255.546 741.504,256.778C742.634,257.931 744.033,258.592 745.658,258.744L745.792,258.75C748.569,258.759 750.379,258.764 751.568,258.764C753.154,258.764 753.636,258.757 753.833,258.741L753.833,258.743C755.413,258.592 756.802,257.939 757.964,256.797C759.29,255.493 759.96,253.888 759.96,252.023L759.96,184.577C759.938,182.768 759.283,181.219 757.995,179.952C756.802,178.821 755.402,178.174 753.831,178.026L753.831,178.028C753.623,178.011 753.119,178.004 751.517,178.004C750.326,178.004 748.527,178.008 745.792,178.018Z" style="fill:rgb(17,177,250);fill-rule:nonzero;"/>
            <path d="M384.747,148.202C382.957,148.265 381.415,148.933 380.161,150.186C379.223,151.124 378.619,152.217 378.354,153.452L378.174,153.452L378.174,158.597L378.115,158.643L378.174,158.671L378.174,161.907L378.199,163.406L378.354,163.406C378.619,164.639 379.22,165.731 380.152,166.662C381.455,167.986 383.07,168.66 384.951,168.66L428.947,168.706L375.144,242.249C374.765,242.758 374.473,243.312 374.257,243.938C374.062,244.571 373.961,245.241 373.961,245.933L373.962,250.842C374.005,252.631 374.681,254.169 375.921,255.365C377.17,256.68 378.727,257.358 380.563,257.38L453.236,257.38C455.049,257.358 456.61,256.683 457.849,255.402C459.173,254.098 459.844,252.492 459.844,250.628L459.844,243.673C459.844,241.81 459.173,240.202 457.884,238.934C456.613,237.599 455,236.921 453.093,236.921L404.428,236.897L458.235,163.376L458.525,162.954L458.525,162.884C458.733,162.518 458.919,162.123 459.092,161.666C459.288,161.033 459.388,160.361 459.388,159.672L459.387,154.762C459.343,153.006 458.687,151.47 457.426,150.187C456.173,148.933 454.631,148.265 452.787,148.2L384.747,148.202Z" style="fill:rgb(17,177,250);fill-rule:nonzero;"/>
        </g>
    </g>
</svg>
