<svg xmlns="http://www.w3.org/2000/svg" xmlns:xlink="http://www.w3.org/1999/xlink" viewBox="0 0 680.00334 680.00094"><defs><style>.cls-1{fill:#fff;}.cls-2{opacity:0.8;}.cls-3{fill:#4fd333;}.cls-4{opacity:0.75;}.cls-5{fill:url(#linear-gradient);}.cls-6{fill:url(#linear-gradient-2);}</style><linearGradient id="linear-gradient" x1="188.38903" y1="602.48413" x2="491.94015" y2="76.71817" gradientTransform="translate(261.26743 -134.54664) rotate(35.60016)" gradientUnits="userSpaceOnUse"><stop offset="0" stop-color="#007bcd"/><stop offset="0.53043" stop-color="#29afe8"/><stop offset="1" stop-color="#4ddcff"/></linearGradient><linearGradient id="linear-gradient-2" x1="200.14101" y1="582.1291" x2="480.18817" y2="97.0732" gradientTransform="translate(261.26743 -134.54664) rotate(35.60016)" gradientUnits="userSpaceOnUse"><stop offset="0" stop-color="#007bcd"/><stop offset="0.53043" stop-color="#29afe8"/><stop offset="0.9955" stop-color="#4ddcff"/></linearGradient></defs><title>Asset 7</title><g id="Layer_2" data-name="Layer 2"><g id="Layer_1-2" data-name="Layer 1"><path class="cls-1" d="M347.58368.08385C157.99161-4.06527,2.25809,146.28235.02413,335.90665A339.88839,339.88839,0,0,0,15.80995,442.74049a159.56773,159.56773,0,0,1,5.6561,73.82429L6.8265,606.53469a56.38591,56.38591,0,0,0,64.39406,64.7602L160.35215,657.31a161.39216,161.39216,0,0,1,74.78688,6.19745,339.69844,339.69844,0,0,0,108.12162,16.47817c191.77306-1.8002,343.30051-160.55335,336.524-352.2151C673.43455,148.17139,527.7856,4.02747,347.58368.08385Z"/><g class="cls-2"><circle class="cls-3" cx="74.41364" cy="604.37687" r="37"/></g><g class="cls-4"><circle class="cls-5" cx="340.16459" cy="339.60115" r="303.47671" transform="translate(-134.11334 261.49011) rotate(-35.60016)"/></g><circle class="cls-6" cx="340.16459" cy="339.60115" r="279.97851" transform="translate(-134.11334 261.49011) rotate(-35.60016)"/><path class="cls-1" d="M455.74063,513.07964a72.36349,72.36349,0,0,0,35.7959-38.33057l4.19238-10.26074s6.36035-13.22412-5.49414-25.11621c-6.04443-6.064-15.35645-13.62744-27.55127-22.81689C454.9291,410.712,448.518,406.07573,443.18643,402.4a34.51378,34.51378,0,0,0-40.12793.66309c-14.54395,10.76416-31.03516,23.12744-31.03516,23.12744s-29.397-1.56738-71.32275-55.23047c-41.94141-53.68213-34.18164-82.19629-34.18164-82.19629s13.05643-10.04223,25.52769-21.54031c17.62612-16.2507,15.12612-35.1257,11.90341-44.18155-2.06311-5.79734-4.97323-12.46542-8.27827-20.25226-5.96387-14.04932-11.125-24.86426-15.51074-32.21777-7.73828-12.97412-23.99463-11.29883-23.99463-11.29883l-15.96436,2.30762a50.69068,50.69068,0,0,0-19.52246,7.022c-82.49268,51.26172-11.02539,176.70068,35.93213,236.80322C296.598,456.58647,387.01113,545.44731,455.74063,513.07964Z"/></g></g></svg>