<?xml version="1.0" encoding="UTF-8" standalone="no"?>
<!DOCTYPE svg PUBLIC "-//W3C//DTD SVG 1.1//EN" "http://www.w3.org/Graphics/SVG/1.1/DTD/svg11.dtd">
<svg width="100%" height="100%" viewBox="0 0 12 11" version="1.1" xmlns="http://www.w3.org/2000/svg" xmlns:xlink="http://www.w3.org/1999/xlink" xml:space="preserve" xmlns:serif="http://www.serif.com/" style="fill-rule:evenodd;clip-rule:evenodd;stroke-linejoin:round;stroke-miterlimit:2;">
    <g transform="matrix(1,0,0,1,-957,12)">
        <g transform="matrix(0.247883,0,0,0.25229,-1345.83,-180.631)">
            <g transform="matrix(2,0,0,2,8798,644)">
                <path d="M258.462,19.657C258.264,19.657 258,19.67 258,19.682L258,14.018L246,23.077L258,32.018L258,25.809C258,25.719 258.945,25.657 259.5,25.657C264.426,25.657 268.512,29.182 269.817,34C270.041,33.108 270.205,32.18 270.205,31.22C270.205,24.834 264.965,19.657 258.462,19.657Z" style="fill:rgb(145,145,145);"/>
            </g>
        </g>
    </g>
</svg>
