<?xml version="1.0" encoding="UTF-8" standalone="no"?>
<!DOCTYPE svg PUBLIC "-//W3C//DTD SVG 1.1//EN" "http://www.w3.org/Graphics/SVG/1.1/DTD/svg11.dtd">
<svg width="100%" height="100%" viewBox="0 0 80 80" version="1.1" xmlns="http://www.w3.org/2000/svg" xmlns:xlink="http://www.w3.org/1999/xlink" xml:space="preserve" xmlns:serif="http://www.serif.com/" style="fill-rule:evenodd;clip-rule:evenodd;stroke-linejoin:round;stroke-miterlimit:2;">
    <rect id="Artboard1" x="0" y="0" width="80" height="80" style="fill:none;"/>
    <g id="Artboard11" serif:id="Artboard1">
        <path id="Combined-Shape" d="M51.196,54.857L28.807,54.857C25.839,54.857 23.43,52.448 23.43,49.48L23.43,32.806C23.43,29.838 25.839,27.428 28.807,27.428L33.252,27.428L34.999,24.766C35.313,24.288 35.846,24 36.417,24L43.58,24C44.155,24 44.691,24.29 45.007,24.77L46.751,27.428L51.196,27.428C54.164,27.429 56.573,29.838 56.573,32.806L56.573,49.48C56.573,52.448 54.164,54.857 51.196,54.857ZM40,48.571C44.103,48.571 47.429,45.245 47.429,41.143C47.429,37.04 44.103,33.714 40,33.714C35.897,33.714 32.571,37.04 32.571,41.143C32.571,45.245 35.897,48.571 40,48.571ZM40,35.428C43.154,35.428 45.714,37.989 45.714,41.143C45.714,44.297 43.154,46.857 40,46.857C36.846,46.857 34.286,44.297 34.286,41.143C34.286,37.989 36.846,35.428 40,35.428Z" style="fill:white;"/>
    </g>
</svg>
