<?xml version="1.0" encoding="UTF-8" standalone="no"?>
<!DOCTYPE svg PUBLIC "-//W3C//DTD SVG 1.1//EN" "http://www.w3.org/Graphics/SVG/1.1/DTD/svg11.dtd">
<svg width="100%" height="100%" viewBox="0 0 180 177" version="1.1" xmlns="http://www.w3.org/2000/svg" xmlns:xlink="http://www.w3.org/1999/xlink" xml:space="preserve" xmlns:serif="http://www.serif.com/" style="fill-rule:evenodd;clip-rule:evenodd;stroke-linejoin:round;stroke-miterlimit:1.41421;">
    <g transform="matrix(1,0,0,1,-1298,-248)">
        <g id="Zangi_Logo-3" transform="matrix(0.656934,0,0,1.46739,834.204,272.946)">
            <rect x="706" y="-17" width="274" height="120" style="fill:none;"/>
            <g transform="matrix(1.50816,0,0,0.675184,-1244.28,-185.24)">
                <g>
                    <path d="M1316.03,393.472C1321.14,393.558 1326.01,396.918 1327.75,401.705C1330.69,409.775 1323.63,420.205 1313.68,418.539C1307.95,417.581 1303.32,412.137 1303.25,406.246C1303.18,399.775 1308.63,393.67 1315.55,393.475C1315.71,393.472 1315.87,393.472 1316.03,393.472ZM1384.43,257.251C1413.59,257.519 1442,274.327 1455.74,300.812C1456.71,302.693 1457.61,304.616 1458.44,306.562L1457.75,306.856L1458.44,306.567C1465.19,322.719 1466.59,341.05 1462.29,358.014C1454.79,387.545 1429.37,411.694 1399.09,417.369C1366.73,423.434 1331.62,408.568 1314.17,378.598C1304.38,361.795 1300.99,341.351 1304.79,322.193C1309.87,296.537 1327.98,274.021 1352.57,263.591C1362.61,259.337 1373.6,257.218 1384.43,257.251ZM1315.72,394.972C1311.32,395.047 1307.08,397.924 1305.46,402.116C1303.42,407.408 1306.2,414.054 1311.51,416.348C1316.82,418.647 1323.75,415.974 1326.1,410.615C1328.97,404.053 1324.23,395.109 1316.01,394.972C1315.87,394.972 1315.87,394.972 1315.72,394.972ZM1383.75,258.75C1354.88,258.88 1326.56,275.789 1313.19,302.354C1305.16,318.311 1302.75,337.038 1306.45,354.533C1310.64,374.294 1322.66,392.236 1339.73,403.79C1361.48,418.506 1390.97,421.357 1415.3,410.871C1438.89,400.708 1456.8,378.664 1461.75,353.571C1466.67,328.63 1458.98,301.491 1441.04,282.995C1427.45,268.982 1408.69,260.122 1389.16,258.923C1387.36,258.812 1385.55,258.748 1383.75,258.75ZM1432.87,365.428L1414.32,352.747C1411.71,350.97 1409.33,350.986 1407.18,352.797L1400.07,357.879C1399,358.535 1397.88,358.812 1396.7,358.712C1396.06,358.646 1394.88,358.351 1393.18,357.829C1391.48,357.274 1389.56,356.246 1387.4,354.747C1384.24,352.547 1380.61,349.325 1376.5,345.082C1373.42,341.905 1370.79,338.9 1368.62,336.067C1366.31,332.99 1364.74,330.485 1363.93,328.552C1363.37,327.152 1363.06,326.014 1363.02,325.136C1362.92,323.992 1363.19,322.864 1363.85,321.753L1368.97,314.705C1370.76,312.505 1370.79,310.089 1369.08,307.456L1356.33,288.894C1353.91,286.216 1351.38,285.644 1348.73,287.177L1341.38,291.626C1338.05,293.815 1336.66,298.203 1337.22,304.79C1337.79,310.722 1339.76,317.388 1343.12,324.786C1347.98,335.384 1355.15,345.454 1364.62,354.996L1366.8,357.179C1373.43,363.756 1380.3,369.21 1387.4,373.543C1390.56,375.476 1393.77,377.175 1397.03,378.642C1404.41,382.052 1411.08,384.024 1417.03,384.557C1423.6,385.112 1427.97,383.74 1430.15,380.441L1434.57,373.026C1436.13,370.427 1435.57,367.894 1432.87,365.428Z" style="fill:rgb(132,146,171);fill-rule:nonzero;"/>
                </g>
            </g>
        </g>
    </g>
</svg>
