<?xml version="1.0" encoding="UTF-8" standalone="no"?>
<!DOCTYPE svg PUBLIC "-//W3C//DTD SVG 1.1//EN" "http://www.w3.org/Graphics/SVG/1.1/DTD/svg11.dtd">
<svg width="100%" height="100%" viewBox="0 0 68 28" version="1.1" xmlns="http://www.w3.org/2000/svg" xmlns:xlink="http://www.w3.org/1999/xlink" xml:space="preserve" xmlns:serif="http://www.serif.com/" style="fill-rule:evenodd;clip-rule:evenodd;stroke-linecap:round;stroke-linejoin:round;">
    <g transform="matrix(1,0,0,1,-1590,0)">
        <g id="Zangi_Logo_2" transform="matrix(0.248175,0,0,0.233333,1414.79,3.96667)">
            <rect x="706" y="-17" width="274" height="120" style="fill:none;"/>
            <g id="Layer0_0_FILL" transform="matrix(0.519497,0,0,0.563423,343.501,-372.987)">
                <path d="M1197.1,694.3C1196.97,694.267 1196.83,694.25 1196.7,694.25L1187.45,694.25C1187.28,694.25 1187.12,694.267 1186.95,694.3C1185.35,694.433 1183.97,695.083 1182.8,696.25C1181.5,697.517 1180.85,699.1 1180.85,701L1180.8,701L1180.8,787.65C1180.83,789.45 1181.5,790.983 1182.8,792.25C1183.93,793.417 1185.32,794.067 1186.95,794.2L1196.6,794.25C1196.8,794.25 1196.97,794.233 1197.1,794.2C1198.7,794.067 1200.08,793.417 1201.25,792.25C1202.58,790.95 1203.25,789.367 1203.25,787.5L1203.25,700.8C1203.22,699 1202.57,697.483 1201.3,696.25C1200.1,695.083 1198.7,694.433 1197.1,694.3M1192.1,695.85L1192.35,696.2C1192.25,696.1 1192.15,696 1192.05,695.9C1191.95,696 1191.85,696.117 1191.75,696.25L1192,695.85L1192.05,695.9C1192.08,695.9 1192.1,695.883 1192.1,695.85M1192,792.55C1192.1,792.45 1192.2,792.35 1192.3,792.25L1192.05,792.6C1192.02,792.6 1192,792.583 1192,792.55C1191.97,792.583 1191.93,792.6 1191.9,792.6L1191.65,792.25C1191.75,792.35 1191.87,792.45 1192,792.55M1209.65,665.7C1210.02,660.933 1208.63,656.733 1205.5,653.1C1202.4,649.467 1198.47,647.467 1193.7,647.1C1188.97,646.733 1184.78,648.117 1181.15,651.25L1180.8,651.5C1180.2,652.033 1179.65,652.567 1179.15,653.1C1178.38,653.933 1177.72,654.817 1177.15,655.75C1175.82,657.983 1175.03,660.5 1174.8,663.3C1174.53,667.033 1175.32,670.4 1177.15,673.4C1177.65,674.267 1178.25,675.1 1178.95,675.9C1179.02,675.967 1179.08,676.033 1179.15,676.1C1182.22,679.6 1186.08,681.517 1190.75,681.85C1195.48,682.25 1199.67,680.883 1203.3,677.75L1203.65,677.5C1207.28,674.367 1209.28,670.433 1209.65,665.7M1076.35,705.5C1066.82,715.033 1061.78,726.433 1061.25,739.7C1061.22,740.467 1061.2,741.233 1061.2,742C1061.2,742.767 1061.22,743.533 1061.25,744.3C1061.78,757.567 1066.82,768.983 1076.35,778.55C1083.12,785.283 1090.8,789.783 1099.4,792.05L1099.5,792.05C1103.73,793.117 1108.18,793.65 1112.85,793.65C1115.85,793.65 1118.77,793.433 1121.6,793C1127.93,792 1133.78,789.867 1139.15,786.6C1140.22,785.967 1141.25,785.3 1142.25,784.6L1142.25,794.95L1142.2,794.95C1142,797.383 1141,799.5 1139.2,801.3C1138.1,802.433 1136.87,803.25 1135.5,803.75C1128.97,806.017 1121.97,807.133 1114.5,807.1C1110.03,807.1 1105.73,806.7 1101.6,805.9C1101.57,805.9 1101.53,805.9 1101.5,805.9L1101.45,805.85C1099.22,805.417 1097.03,804.85 1094.9,804.15L1094.25,803.95C1093.98,803.85 1093.68,803.75 1093.35,803.65L1093,803.5C1092.6,803.367 1092.2,803.217 1091.8,803.05L1091.8,803.1L1086.6,801.35C1084.9,800.817 1083.23,800.933 1081.6,801.7C1079.97,802.5 1078.83,803.8 1078.2,805.6L1075.3,814.05L1075.35,814.05C1074.75,815.817 1074.85,817.533 1075.65,819.2C1076.45,820.867 1077.75,822 1079.55,822.6L1079.5,822.65L1084.75,824.45L1084.7,824.5C1093.93,827.9 1103.87,829.6 1114.5,829.6C1123.57,829.567 1132.23,828.283 1140.5,825.75C1140.57,825.717 1140.65,825.7 1140.75,825.7C1141.35,825.5 1141.97,825.283 1142.6,825.05C1143.3,824.817 1144,824.567 1144.7,824.3C1148.47,822.7 1151.92,820.333 1155.05,817.2C1160.88,811.4 1164.05,804.467 1164.55,796.4C1164.58,795.667 1164.6,794.917 1164.6,794.15C1164.6,793.683 1164.6,793.233 1164.6,792.8L1164.65,792.8L1164.65,701C1164.62,699.233 1163.95,697.717 1162.65,696.45C1161.35,695.117 1159.77,694.45 1157.9,694.45L1150.15,694.45C1148.28,694.45 1146.68,695.117 1145.35,696.45C1144.25,697.517 1143.62,698.8 1143.45,700.3C1134.62,693.667 1124.42,690.35 1112.85,690.35C1098.58,690.35 1086.42,695.4 1076.35,705.5M1112.85,712.85C1120.92,712.85 1127.8,715.7 1133.5,721.4C1139.2,727.067 1142.05,733.933 1142.05,742C1142.05,749.5 1139.6,755.983 1134.7,761.45L1133.5,762.65C1127.8,768.35 1120.92,771.2 1112.85,771.2C1111.55,771.2 1110.28,771.133 1109.05,771L1109,771C1108.97,770.967 1108.93,770.95 1108.9,770.95C1102.53,770.15 1096.98,767.383 1092.25,762.65C1086.55,756.95 1083.7,750.067 1083.7,742C1083.7,733.933 1086.55,727.067 1092.25,721.4C1097.95,715.7 1104.82,712.85 1112.85,712.85M1154.6,696.1L1154.25,696.45L1154.55,696.05L1154.6,696.1M1078.35,810.35C1078.42,810.483 1078.48,810.6 1078.55,810.7L1078.3,810.35L1078.35,810.35M966.35,700.3C966.15,698.8 965.5,697.517 964.4,696.45C963.1,695.117 961.517,694.45 959.65,694.45L951.9,694.45C950.033,694.45 948.45,695.117 947.15,696.45C945.817,697.75 945.15,699.333 945.15,701.2L945.1,787.65C945.133,789.45 945.783,790.983 947.05,792.25C948.383,793.583 949.983,794.25 951.85,794.25L960.8,794.25C962.633,794.25 964.217,793.583 965.55,792.25C966.85,790.95 967.5,789.367 967.5,787.5L967.55,787.5L967.7,742.35C967.7,742.217 967.7,742.1 967.7,742C967.7,733.933 970.55,727.067 976.25,721.4C981.95,715.7 988.833,712.85 996.9,712.85C1004.93,712.85 1011.82,715.7 1017.55,721.4C1018.72,722.567 1019.78,723.8 1020.75,725.1L1020.8,725.15C1024.03,729.55 1025.78,734.583 1026.05,740.25L1026,787.65C1026.03,789.45 1026.7,790.983 1028,792.25C1029.3,793.583 1030.88,794.25 1032.75,794.25L1041.7,794.25C1043.57,794.25 1045.15,793.583 1046.45,792.25C1047.78,790.95 1048.45,789.367 1048.45,787.5L1048.5,739.65C1048.5,739.617 1048.5,739.583 1048.5,739.55L1048.5,739.5C1048.03,729.133 1044.82,719.9 1038.85,711.8L1038.85,711.75C1037.22,709.583 1035.42,707.5 1033.45,705.5C1023.32,695.4 1011.13,690.35 996.9,690.35C985.333,690.35 975.15,693.667 966.35,700.3M956,696.45L956.3,696.05L956.3,696.1L956.4,696.05L956.7,696.45L956.3,696.1L956,696.45M840.1,705.5C830,715.6 824.95,727.767 824.95,742C824.95,756.267 830,768.45 840.1,778.55C850.167,788.617 862.333,793.65 876.6,793.65C887.633,793.65 897.417,790.633 905.95,784.6L905.95,787.65C906.017,789.45 906.683,790.983 907.95,792.25C909.25,793.583 910.85,794.25 912.75,794.25L921.6,794.25C923.467,794.25 925.067,793.583 926.4,792.25C927.7,790.95 928.35,789.367 928.35,787.5L928.4,787.5L928.4,701C928.333,699.233 927.667,697.717 926.4,696.45C925.1,695.117 923.5,694.45 921.6,694.45L913.85,694.45C912.017,694.45 910.433,695.117 909.1,696.45C908,697.517 907.367,698.8 907.2,700.3C898.367,693.667 888.167,690.35 876.6,690.35C862.333,690.35 850.167,695.4 840.1,705.5M856,721.4C861.667,715.7 868.533,712.85 876.6,712.85C884.667,712.85 891.55,715.7 897.25,721.4C902.917,727.067 905.75,733.933 905.75,742C905.75,750.067 902.917,756.95 897.25,762.65C891.55,768.35 884.667,771.2 876.6,771.2C868.533,771.2 861.667,768.35 856,762.65C850.267,756.95 847.4,750.067 847.4,742C847.4,733.933 850.267,727.067 856,721.4M918.3,696.1L918.4,696.05L918.65,696.45L918.3,696.1L918,696.45L918.25,696.05L918.3,696.1M917.2,792.55C917.3,792.45 917.4,792.35 917.5,792.25L917.2,792.6L917.2,792.55C917.167,792.583 917.133,792.6 917.1,792.6L916.85,792.25C916.95,792.35 917.067,792.45 917.2,792.55M718.75,663.95L718.7,663.95L718.7,672.9L718.75,672.9C718.75,674.767 719.4,676.35 720.7,677.65C722,678.983 723.6,679.65 725.5,679.65L785.85,679.7L714.45,777.3C714.083,777.8 713.8,778.333 713.6,778.9C713.4,779.533 713.3,780.2 713.3,780.9L713.3,787.15C713.333,788.95 714,790.467 715.3,791.7C716.533,793 718.05,793.667 719.85,793.7L813.25,793.7C815.05,793.667 816.583,793 817.85,791.7C819.183,790.4 819.85,788.817 819.85,786.95L819.85,778C819.85,776.133 819.183,774.55 817.85,773.25C816.583,771.917 815,771.25 813.1,771.25L808.85,771.25C808.583,771.217 808.333,771.2 808.1,771.2L807.95,771.2C807.683,771.2 807.417,771.217 807.15,771.25L806.3,771.25C806.033,771.217 805.767,771.2 805.5,771.2L746.75,771.2L818.15,673.65L818.15,673.6C818.483,673.1 818.75,672.567 818.95,672C819.15,671.367 819.25,670.7 819.25,670L819.25,663.75C819.217,661.983 818.567,660.467 817.3,659.2C816.033,657.933 814.5,657.267 812.7,657.2L725.3,657.2C723.5,657.267 721.967,657.933 720.7,659.2C719.4,660.5 718.75,662.083 718.75,663.95M720.35,668.45L720.4,668.4L720.35,668.35L720.7,668.1C720.6,668.2 720.5,668.3 720.4,668.4C720.5,668.5 720.6,668.617 720.7,668.75L720.35,668.45Z" style="fill:rgb(48,171,246);fill-rule:nonzero;"/>
            </g>
            <g id="Layer0_0_1_STROKES" transform="matrix(0.519497,0,0,0.563423,343.501,-372.987)">
                <path d="M818.15,673.65L746.75,771.2L805.5,771.2C805.767,771.2 806.033,771.217 806.3,771.25L807.15,771.25C807.417,771.217 807.683,771.2 807.95,771.2L808.1,771.2C808.333,771.2 808.583,771.217 808.85,771.25L813.1,771.25C815,771.25 816.583,771.917 817.85,773.25C819.183,774.55 819.85,776.133 819.85,778L819.85,786.95C819.85,788.817 819.183,790.4 817.85,791.7C816.583,793 815.05,793.667 813.25,793.7L719.85,793.7C718.05,793.667 716.533,793 715.3,791.7C714,790.467 713.333,788.95 713.3,787.15L713.3,780.9C713.3,780.2 713.4,779.533 713.6,778.9C713.8,778.333 714.083,777.8 714.45,777.3L785.85,679.7L725.5,679.65C723.6,679.65 722,678.983 720.7,677.65C719.4,676.35 718.75,674.767 718.75,672.9L718.7,672.9L718.7,663.95L718.75,663.95C718.75,662.083 719.4,660.5 720.7,659.2C721.967,657.933 723.5,657.267 725.3,657.2L812.7,657.2C814.5,657.267 816.033,657.933 817.3,659.2C818.567,660.467 819.217,661.983 819.25,663.75L819.25,670C819.25,670.7 819.15,671.367 818.95,672C818.75,672.567 818.483,673.1 818.15,673.6L818.15,673.65ZM905.75,742C905.75,750.067 902.917,756.95 897.25,762.65C891.55,768.35 884.667,771.2 876.6,771.2C868.533,771.2 861.667,768.35 856,762.65C850.267,756.95 847.4,750.067 847.4,742C847.4,733.933 850.267,727.067 856,721.4C861.667,715.7 868.533,712.85 876.6,712.85C884.667,712.85 891.55,715.7 897.25,721.4C902.917,727.067 905.75,733.933 905.75,742ZM921.6,694.45C923.5,694.45 925.1,695.117 926.4,696.45C927.667,697.717 928.333,699.233 928.4,701L928.4,787.5L928.35,787.5C928.35,789.367 927.7,790.95 926.4,792.25C925.067,793.583 923.467,794.25 921.6,794.25L912.75,794.25C910.85,794.25 909.25,793.583 907.95,792.25C906.683,790.983 906.017,789.45 905.95,787.65L905.95,784.6C897.417,790.633 887.633,793.65 876.6,793.65C862.333,793.65 850.167,788.617 840.1,778.55C830,768.45 824.95,756.267 824.95,742C824.95,727.767 830,715.6 840.1,705.5C850.167,695.4 862.333,690.35 876.6,690.35C888.167,690.35 898.367,693.667 907.2,700.3C907.367,698.8 908,697.517 909.1,696.45C910.433,695.117 912.017,694.45 913.85,694.45L921.6,694.45ZM1032.75,794.25C1030.88,794.25 1029.3,793.583 1028,792.25C1026.7,790.983 1026.03,789.45 1026,787.65L1026.05,740.25C1025.78,734.583 1024.03,729.55 1020.8,725.15L1020.75,725.1C1019.78,723.8 1018.72,722.567 1017.55,721.4C1011.82,715.7 1004.93,712.85 996.9,712.85C988.833,712.85 981.95,715.7 976.25,721.4C970.55,727.067 967.7,733.933 967.7,742C967.7,742.1 967.7,742.217 967.7,742.35L967.55,787.5L967.5,787.5C967.5,789.367 966.85,790.95 965.55,792.25C964.217,793.583 962.633,794.25 960.8,794.25L951.85,794.25C949.983,794.25 948.383,793.583 947.05,792.25C945.783,790.983 945.133,789.45 945.1,787.65L945.15,701.2C945.15,699.333 945.817,697.75 947.15,696.45C948.45,695.117 950.033,694.45 951.9,694.45L959.65,694.45C961.517,694.45 963.1,695.117 964.4,696.45C965.5,697.517 966.15,698.8 966.35,700.3C975.15,693.667 985.333,690.35 996.9,690.35C1011.13,690.35 1023.32,695.4 1033.45,705.5C1035.42,707.5 1037.22,709.583 1038.85,711.75L1038.85,711.8C1044.82,719.9 1048.03,729.133 1048.5,739.5L1048.5,739.65L1048.45,787.5C1048.45,789.367 1047.78,790.95 1046.45,792.25C1045.15,793.583 1043.57,794.25 1041.7,794.25L1032.75,794.25ZM1142.05,742C1142.05,749.5 1139.6,755.983 1134.7,761.45L1133.5,762.65C1127.8,768.35 1120.92,771.2 1112.85,771.2C1111.55,771.2 1110.28,771.133 1109.05,771L1109,771C1108.97,770.967 1108.93,770.95 1108.9,770.95C1102.53,770.15 1096.98,767.383 1092.25,762.65C1086.55,756.95 1083.7,750.067 1083.7,742C1083.7,733.933 1086.55,727.067 1092.25,721.4C1097.95,715.7 1104.82,712.85 1112.85,712.85C1120.92,712.85 1127.8,715.7 1133.5,721.4C1139.2,727.067 1142.05,733.933 1142.05,742ZM1079.5,822.65L1079.55,822.6C1077.75,822 1076.45,820.867 1075.65,819.2C1074.85,817.533 1074.75,815.817 1075.35,814.05L1075.3,814.05L1078.2,805.6C1078.83,803.8 1079.97,802.5 1081.6,801.7C1083.23,800.933 1084.9,800.817 1086.6,801.35L1091.8,803.1L1091.8,803.05C1092.2,803.217 1092.6,803.367 1093,803.5L1093.35,803.65C1093.68,803.75 1093.98,803.85 1094.25,803.95L1094.9,804.15C1097.03,804.85 1099.22,805.417 1101.45,805.85L1101.5,805.9C1101.53,805.9 1101.57,805.9 1101.6,805.9C1105.73,806.7 1110.03,807.1 1114.5,807.1C1121.97,807.133 1128.97,806.017 1135.5,803.75C1136.87,803.25 1138.1,802.433 1139.2,801.3C1141,799.5 1142,797.383 1142.2,794.95L1142.25,794.95L1142.25,794.15L1142.25,784.6C1141.25,785.3 1140.22,785.967 1139.15,786.6C1133.78,789.867 1127.93,792 1121.6,793C1118.77,793.433 1115.85,793.65 1112.85,793.65C1108.18,793.65 1103.73,793.117 1099.5,792.05L1099.4,792.05C1090.8,789.783 1083.12,785.283 1076.35,778.55C1066.82,768.983 1061.78,757.567 1061.25,744.3C1061.22,743.533 1061.2,742.767 1061.2,742C1061.2,741.233 1061.22,740.467 1061.25,739.7C1061.78,726.433 1066.82,715.033 1076.35,705.5C1086.42,695.4 1098.58,690.35 1112.85,690.35C1124.42,690.35 1134.62,693.667 1143.45,700.3C1143.62,698.8 1144.25,697.517 1145.35,696.45C1146.68,695.117 1148.28,694.45 1150.15,694.45L1157.9,694.45C1159.77,694.45 1161.35,695.117 1162.65,696.45C1163.95,697.717 1164.62,699.233 1164.65,701L1164.65,792.8L1164.6,792.8C1164.6,793.233 1164.6,793.683 1164.6,794.15C1164.6,794.917 1164.58,795.667 1164.55,796.4C1164.05,804.467 1160.88,811.4 1155.05,817.2C1151.92,820.333 1148.47,822.7 1144.7,824.3C1144,824.567 1143.3,824.817 1142.6,825.05C1141.97,825.283 1141.35,825.5 1140.75,825.7C1140.65,825.7 1140.57,825.717 1140.5,825.75C1132.23,828.283 1123.57,829.567 1114.5,829.6C1103.87,829.6 1093.93,827.9 1084.7,824.5L1084.75,824.45L1079.5,822.65ZM1181.15,651.25L1180.8,651.5C1180.2,652.033 1179.65,652.567 1179.15,653.1C1178.38,653.933 1177.72,654.817 1177.15,655.75C1175.82,657.983 1175.03,660.5 1174.8,663.3C1174.53,667.033 1175.32,670.4 1177.15,673.4C1177.65,674.267 1178.25,675.1 1178.95,675.9C1179.02,675.967 1179.08,676.033 1179.15,676.1C1182.22,679.6 1186.08,681.517 1190.75,681.85C1195.48,682.25 1199.67,680.883 1203.3,677.75L1203.65,677.5C1207.28,674.367 1209.28,670.433 1209.65,665.7C1210.02,660.933 1208.63,656.733 1205.5,653.1C1202.4,649.467 1198.47,647.467 1193.7,647.1C1188.97,646.733 1184.78,648.117 1181.15,651.25ZM1187.45,694.25L1196.7,694.25C1196.83,694.25 1196.97,694.267 1197.1,694.3C1198.7,694.433 1200.1,695.083 1201.3,696.25C1202.57,697.483 1203.22,699 1203.25,700.8L1203.25,787.5C1203.25,789.367 1202.58,790.95 1201.25,792.25C1200.08,793.417 1198.7,794.067 1197.1,794.2C1196.97,794.233 1196.8,794.25 1196.6,794.25L1186.95,794.2C1185.32,794.067 1183.93,793.417 1182.8,792.25C1181.5,790.983 1180.83,789.45 1180.8,787.65L1180.8,701L1180.85,701C1180.85,699.1 1181.5,697.517 1182.8,696.25C1183.97,695.083 1185.35,694.433 1186.95,694.3C1187.12,694.267 1187.28,694.25 1187.45,694.25Z" style="fill:none;stroke:rgb(48,171,246);stroke-width:4px;"/>
            </g>
        </g>
    </g>
</svg>
