<?xml version="1.0" encoding="UTF-8" standalone="no"?>
<!DOCTYPE svg PUBLIC "-//W3C//DTD SVG 1.1//EN" "http://www.w3.org/Graphics/SVG/1.1/DTD/svg11.dtd">
<svg width="100%" height="100%" viewBox="0 0 108 40" version="1.1" xmlns="http://www.w3.org/2000/svg" xmlns:xlink="http://www.w3.org/1999/xlink" xml:space="preserve" xmlns:serif="http://www.serif.com/" style="fill-rule:evenodd;clip-rule:evenodd;stroke-linejoin:round;stroke-miterlimit:2;">
    <g transform="matrix(1,0,0,1,-69,0)">
        <g id="Монтажная-область1" serif:id="Монтажная область1" transform="matrix(1,0,0,1,-0.411418,0)">
            <rect x="69.411" y="0" width="107.589" height="40" style="fill:none;"/>
            <g transform="matrix(1,0,0,1,50.8228,3.3)">
                <g transform="matrix(2.46184,0,0,2.5,22.3829,-2.3)">
                    <path d="M4.11,9.41C4.04,9.73 4,10 3.97,10.19C3.94,10.39 3.93,10.55 3.93,10.68C3.93,10.81 3.95,10.95 3.98,11.12C4.02,11.29 4.1,11.44 4.24,11.58C4.48,11.79 4.79,11.9 5.17,11.9C5.41,11.9 5.62,11.87 5.79,11.81C5.97,11.75 6.11,11.66 6.22,11.55C6.43,11.35 6.58,11.11 6.66,10.81C6.74,10.51 6.81,10.25 6.87,10.01L9.01,0L13.06,0L10.97,9.71C10.91,9.99 10.84,10.31 10.76,10.68C10.68,11.05 10.56,11.42 10.42,11.8C10.28,12.18 10.11,12.55 9.9,12.92C9.7,13.29 9.45,13.61 9.15,13.89C8.84,14.19 8.5,14.42 8.12,14.6C7.74,14.78 7.36,14.91 6.98,14.99C6.6,15.07 6.23,15.13 5.87,15.16C5.51,15.19 5.19,15.2 4.91,15.2C4.66,15.2 4.38,15.19 4.07,15.18C3.76,15.17 3.44,15.13 3.11,15.06C2.78,15 2.46,14.91 2.14,14.8C1.82,14.69 1.54,14.53 1.29,14.34C1.01,14.13 0.78,13.9 0.61,13.65C0.44,13.4 0.31,13.15 0.22,12.9C0.13,12.65 0.07,12.39 0.04,12.14C0.01,11.88 0,11.64 0,11.42C0,11.31 0.01,11.16 0.02,10.97C0.03,10.78 0.05,10.58 0.07,10.38C0.09,10.18 0.12,9.98 0.14,9.79C0.18,9.59 0.2,9.43 0.23,9.31L0.27,9.14L4.17,9.14L4.11,9.41Z" style="fill:rgb(144,144,144);fill-rule:nonzero;"/>
                </g>
                <g transform="matrix(2.46184,0,0,2.5,22.3829,-2.3)">
                    <path d="M13.29,6.04C13.59,5.59 13.92,5.21 14.28,4.9C14.62,4.63 14.97,4.42 15.32,4.26C15.68,4.1 16.03,3.98 16.39,3.9C16.74,3.82 17.09,3.77 17.42,3.75C17.76,3.73 18.07,3.72 18.37,3.72C19.37,3.72 20.13,3.79 20.65,3.93C21.17,4.07 21.57,4.22 21.85,4.37C22.38,4.68 22.76,5.05 22.99,5.49C23.21,5.93 23.33,6.43 23.33,6.99C23.33,7.27 23.31,7.56 23.26,7.84C23.21,8.13 23.15,8.42 23.08,8.72L22.15,12.94C22.12,13.08 22.09,13.24 22.07,13.41C22.04,13.59 22.03,13.73 22.03,13.84C22.03,13.94 22.04,14.04 22.06,14.14C22.08,14.24 22.13,14.33 22.22,14.41C22.3,14.49 22.39,14.54 22.47,14.56L22.45,14.77L18.4,14.77L18.36,13.69L18.3,13.69C18.1,13.89 17.88,14.08 17.65,14.28C17.41,14.48 17.15,14.63 16.87,14.74C16.55,14.88 16.18,14.99 15.78,15.06C15.38,15.13 15,15.17 14.63,15.17C14.52,15.17 14.37,15.17 14.2,15.16C14.02,15.15 13.83,15.13 13.62,15.09C13.41,15.05 13.19,14.99 12.98,14.91C12.76,14.83 12.55,14.73 12.36,14.6C12.04,14.39 11.77,14.1 11.57,13.75C11.37,13.39 11.26,12.94 11.26,12.41C11.26,11.83 11.36,11.34 11.57,10.93C11.77,10.52 12.01,10.19 12.28,9.94C12.52,9.71 12.78,9.53 13.07,9.39C13.36,9.25 13.65,9.13 13.94,9.04C14.23,8.95 14.51,8.88 14.77,8.84L15.45,8.73L16.76,8.58C17.38,8.51 17.88,8.44 18.27,8.37C18.66,8.3 18.96,8.19 19.17,8.03C19.34,7.9 19.45,7.76 19.51,7.61C19.57,7.46 19.59,7.29 19.59,7.1C19.59,6.97 19.57,6.84 19.52,6.69C19.47,6.54 19.37,6.41 19.21,6.3C19.08,6.22 18.91,6.16 18.69,6.12C18.47,6.08 18.29,6.07 18.13,6.07C17.81,6.07 17.55,6.11 17.36,6.19C17.17,6.27 17.02,6.36 16.91,6.47C16.74,6.62 16.63,6.79 16.55,7C16.47,7.2 16.42,7.4 16.39,7.6L12.63,7.6C12.78,7.01 12.99,6.49 13.29,6.04ZM18.69,10.04C18.58,10.08 18.45,10.12 18.31,10.17C18.16,10.21 17.98,10.25 17.77,10.3C17.57,10.34 17.37,10.38 17.17,10.41C16.87,10.45 16.58,10.51 16.29,10.57C16,10.63 15.75,10.77 15.54,10.98C15.31,11.21 15.2,11.49 15.2,11.85C15.2,11.99 15.22,12.13 15.26,12.26C15.3,12.39 15.4,12.52 15.56,12.63C15.69,12.73 15.82,12.79 15.96,12.81C16.1,12.83 16.23,12.84 16.34,12.84C16.58,12.84 16.81,12.81 17.04,12.76C17.27,12.7 17.48,12.61 17.67,12.46C18.08,12.18 18.37,11.84 18.55,11.44C18.73,11.04 18.85,10.68 18.92,10.37L19.05,9.86C18.92,9.94 18.8,10 18.69,10.04Z" style="fill:rgb(144,144,144);fill-rule:nonzero;"/>
                </g>
                <g transform="matrix(2.46184,0,0,2.5,22.3829,-2.3)">
                    <path d="M27.06,14.77L23.22,14.77L26.36,0L30.2,0L27.06,14.77Z" style="fill:rgb(144,144,144);fill-rule:nonzero;"/>
                </g>
                <g transform="matrix(2.46184,0,0,2.5,22.3829,-2.3)">
                    <path d="M30.58,6.04C30.88,5.59 31.21,5.21 31.57,4.9C31.91,4.63 32.26,4.42 32.61,4.26C32.97,4.1 33.32,3.98 33.68,3.9C34.03,3.82 34.38,3.77 34.71,3.75C35.05,3.73 35.36,3.72 35.66,3.72C36.66,3.72 37.42,3.79 37.94,3.93C38.46,4.07 38.86,4.22 39.14,4.37C39.67,4.68 40.05,5.05 40.28,5.49C40.51,5.93 40.62,6.43 40.62,6.99C40.62,7.27 40.6,7.56 40.55,7.84C40.5,8.13 40.44,8.42 40.37,8.72L39.44,12.94C39.41,13.08 39.38,13.24 39.36,13.41C39.33,13.59 39.32,13.73 39.32,13.84C39.32,13.94 39.33,14.04 39.35,14.14C39.37,14.24 39.42,14.33 39.51,14.41C39.59,14.49 39.68,14.54 39.76,14.56L39.74,14.77L35.69,14.77L35.65,13.69L35.59,13.69C35.39,13.89 35.17,14.08 34.94,14.28C34.7,14.48 34.44,14.63 34.16,14.74C33.84,14.88 33.47,14.99 33.07,15.06C32.67,15.13 32.29,15.17 31.92,15.17C31.81,15.17 31.66,15.17 31.49,15.16C31.31,15.15 31.12,15.13 30.91,15.09C30.7,15.05 30.48,14.99 30.27,14.91C30.05,14.83 29.84,14.73 29.65,14.6C29.33,14.39 29.06,14.1 28.86,13.75C28.66,13.39 28.55,12.94 28.55,12.41C28.55,11.83 28.65,11.34 28.86,10.93C29.06,10.52 29.3,10.19 29.57,9.94C29.81,9.71 30.07,9.53 30.36,9.39C30.65,9.25 30.94,9.13 31.23,9.04C31.52,8.95 31.8,8.88 32.06,8.84L32.74,8.73L34.05,8.58C34.67,8.51 35.17,8.44 35.56,8.37C35.95,8.3 36.25,8.19 36.46,8.03C36.63,7.9 36.74,7.76 36.8,7.61C36.86,7.46 36.88,7.29 36.88,7.1C36.88,6.97 36.86,6.84 36.81,6.69C36.76,6.54 36.66,6.41 36.5,6.3C36.37,6.22 36.2,6.16 35.98,6.12C35.76,6.08 35.58,6.07 35.42,6.07C35.1,6.07 34.84,6.11 34.65,6.19C34.46,6.27 34.31,6.36 34.2,6.47C34.03,6.62 33.92,6.79 33.84,7C33.76,7.2 33.71,7.4 33.68,7.6L29.92,7.6C30.07,7.01 30.29,6.49 30.58,6.04ZM35.98,10.04C35.87,10.08 35.74,10.12 35.6,10.17C35.45,10.21 35.27,10.25 35.06,10.3C34.86,10.34 34.66,10.38 34.46,10.41C34.16,10.45 33.87,10.51 33.58,10.57C33.29,10.63 33.04,10.77 32.83,10.98C32.6,11.21 32.49,11.49 32.49,11.85C32.49,11.99 32.51,12.13 32.55,12.26C32.59,12.39 32.69,12.52 32.85,12.63C32.98,12.73 33.11,12.79 33.25,12.81C33.39,12.83 33.52,12.84 33.63,12.84C33.87,12.84 34.1,12.81 34.33,12.76C34.55,12.7 34.77,12.61 34.96,12.46C35.37,12.18 35.66,11.84 35.84,11.44C36.02,11.04 36.14,10.68 36.21,10.37L36.34,9.86C36.22,9.94 36.1,10 35.98,10.04Z" style="fill:rgb(144,144,144);fill-rule:nonzero;"/>
                </g>
            </g>
        </g>
    </g>
</svg>
