<?xml version="1.0" encoding="UTF-8" standalone="no"?>
<!DOCTYPE svg PUBLIC "-//W3C//DTD SVG 1.1//EN" "http://www.w3.org/Graphics/SVG/1.1/DTD/svg11.dtd">
<svg width="100%" height="100%" viewBox="0 0 90 96" version="1.1" xmlns="http://www.w3.org/2000/svg" xmlns:xlink="http://www.w3.org/1999/xlink" xml:space="preserve" xmlns:serif="http://www.serif.com/" style="fill-rule:evenodd;clip-rule:evenodd;stroke-miterlimit:10;">
    <g transform="matrix(1,0,0,1,-190,0)">
        <g id="Монтажная-область2" serif:id="Монтажная область2" transform="matrix(1,0,0,1.06667,0,0)">
            <rect x="190" y="0" width="90" height="90" style="fill:none;"/>
            <clipPath id="_clip1">
                <rect x="190" y="0" width="90" height="90"/>
            </clipPath>
            <g clip-path="url(#_clip1)">
                <g transform="matrix(2.0064,0,0,1.88995,193.247,1.41767)">
                    <path d="M5.01,20.81L36.61,20.81C39.1,20.81 41.12,22.83 41.12,25.32L41.12,41.12C41.12,43.61 39.1,45.63 36.61,45.63L5.01,45.63C2.52,45.63 0.5,43.61 0.5,41.12L0.5,25.32C0.5,22.83 2.52,20.81 5.01,20.81Z" style="fill:none;fill-rule:nonzero;stroke:white;stroke-width:1px;"/>
                </g>
                <g transform="matrix(2.0064,0,0,1.88995,193.247,1.41767)">
                    <path d="M9.53,20.81L9.53,11.78C9.53,5.55 14.58,0.49 20.82,0.49C27.06,0.49 32.1,5.55 32.1,11.79L32.1,20.82" style="fill:none;fill-rule:nonzero;stroke:white;stroke-width:1px;"/>
                </g>
                <g transform="matrix(2.0064,0,0,1.88995,193.247,1.41767)">
                    <path d="M20.81,37.08C18.68,37.08 16.96,35.35 16.96,33.23C16.96,31.1 18.69,29.38 20.81,29.38C22.94,29.38 24.66,31.11 24.66,33.23C24.67,35.36 22.94,37.08 20.81,37.08Z" style="fill:none;fill-rule:nonzero;stroke:white;stroke-width:1px;"/>
                </g>
            </g>
        </g>
    </g>
</svg>
